<?xml version="1.0" encoding="UTF-8"?>
<svg id="_레이어_1" data-name="레이어_1" xmlns="http://www.w3.org/2000/svg" xmlns:xlink="http://www.w3.org/1999/xlink" version="1.1" viewBox="0 0 395 408.6">
  <!-- Generator: Adobe Illustrator 29.2.0, SVG Export Plug-In . SVG Version: 2.1.0 Build 108)  -->
  <defs>
    <style>
      .st0 {
        fill: none;
      }

      .st1 {
        fill: #b5d3f7;
      }

      .st2 {
        fill: #d6d1db;
      }

      .st3 {
        fill: #e4e0e7;
      }

      .st4 {
        fill: #3c3cb9;
      }

      .st5 {
        fill: url(#_무제_그라디언트);
      }

      .st6 {
        fill: #5353dd;
      }

      .st7 {
        fill: #fabc9d;
      }

      .st8, .st9 {
        fill: #82a4cc;
      }

      .st10 {
        fill: #fdffe6;
      }

      .st11 {
        fill: #303084;
      }

      .st12, .st13, .st9 {
        isolation: isolate;
      }

      .st14 {
        fill: #3f52b0;
      }

      .st15 {
        fill: #724435;
      }

      .st16 {
        fill: #d9d4d8;
      }

      .st17 {
        fill: #c7c2cc;
      }

      .st18 {
        fill: #dfd7e2;
      }

      .st19 {
        fill: url(#_무제_그라디언트_6);
      }

      .st20 {
        fill: url(#_무제_그라디언트_4);
      }

      .st21 {
        fill: url(#_무제_그라디언트_7);
      }

      .st22 {
        fill: url(#_무제_그라디언트_5);
      }

      .st23 {
        fill: url(#_무제_그라디언트_8);
      }

      .st24 {
        fill: url(#_무제_그라디언트_9);
      }

      .st25 {
        fill: url(#_무제_그라디언트_2);
      }

      .st26 {
        fill: url(#_무제_그라디언트_3);
      }

      .st27 {
        clip-path: url(#clippath-1);
      }

      .st28 {
        fill: #ada4b8;
      }

      .st29 {
        fill: #f1a782;
      }

      .st30 {
        fill: #cbe3ff;
      }

      .st31 {
        fill: #fff;
      }

      .st32 {
        fill: #fcbe9f;
      }

      .st33 {
        fill: url(#_무제_그라디언트_17);
      }

      .st34 {
        fill: url(#_무제_그라디언트_19);
      }

      .st35 {
        fill: url(#_무제_그라디언트_14);
      }

      .st36 {
        fill: url(#_무제_그라디언트_11);
      }

      .st37 {
        fill: url(#_무제_그라디언트_18);
      }

      .st38 {
        fill: url(#_무제_그라디언트_13);
      }

      .st39 {
        fill: url(#_무제_그라디언트_15);
      }

      .st40 {
        fill: url(#_무제_그라디언트_16);
      }

      .st41 {
        fill: url(#_무제_그라디언트_12);
      }

      .st42 {
        fill: url(#_무제_그라디언트_10);
      }

      .st43 {
        fill: url(#_무제_그라디언트_22);
      }

      .st44 {
        fill: url(#_무제_그라디언트_29);
      }

      .st45 {
        fill: url(#_무제_그라디언트_28);
      }

      .st46 {
        fill: url(#_무제_그라디언트_27);
      }

      .st47 {
        fill: url(#_무제_그라디언트_21);
      }

      .st48 {
        fill: url(#_무제_그라디언트_26);
      }

      .st49 {
        fill: url(#_무제_그라디언트_25);
      }

      .st50 {
        fill: url(#_무제_그라디언트_24);
      }

      .st51 {
        fill: url(#_무제_그라디언트_20);
      }

      .st52 {
        fill: url(#_무제_그라디언트_23);
      }

      .st53 {
        fill: url(#_무제_그라디언트_32);
      }

      .st54 {
        fill: url(#_무제_그라디언트_33);
      }

      .st55 {
        fill: url(#_무제_그라디언트_36);
      }

      .st56 {
        fill: url(#_무제_그라디언트_35);
      }

      .st57 {
        fill: url(#_무제_그라디언트_31);
      }

      .st58 {
        fill: url(#_무제_그라디언트_30);
      }

      .st59 {
        fill: url(#_무제_그라디언트_38);
      }

      .st60 {
        fill: url(#_무제_그라디언트_37);
      }

      .st61 {
        fill: url(#_무제_그라디언트_39);
      }

      .st62 {
        fill: url(#_무제_그라디언트_54);
      }

      .st63 {
        fill: url(#_무제_그라디언트_55);
      }

      .st64 {
        fill: url(#_무제_그라디언트_57);
      }

      .st65 {
        fill: url(#_무제_그라디언트_56);
      }

      .st66 {
        fill: url(#_무제_그라디언트_82);
      }

      .st67 {
        fill: url(#_무제_그라디언트_80);
      }

      .st68 {
        fill: url(#_무제_그라디언트_81);
      }

      .st69 {
        fill: url(#_무제_그라디언트_63);
      }

      .st70 {
        fill: url(#_무제_그라디언트_62);
      }

      .st71 {
        fill: url(#_무제_그라디언트_61);
      }

      .st72 {
        fill: url(#_무제_그라디언트_60);
      }

      .st73 {
        fill: url(#_무제_그라디언트_73);
      }

      .st74 {
        fill: url(#_무제_그라디언트_72);
      }

      .st75 {
        fill: url(#_무제_그라디언트_70);
      }

      .st76 {
        fill: url(#_무제_그라디언트_71);
      }

      .st77 {
        fill: url(#_무제_그라디언트_41);
      }

      .st78 {
        fill: url(#_무제_그라디언트_42);
      }

      .st79 {
        fill: url(#_무제_그라디언트_40);
      }

      .st80 {
        fill: url(#_무제_그라디언트_43);
      }

      .st81 {
        fill: url(#_무제_그라디언트_48);
      }

      .st82 {
        fill: url(#_무제_그라디언트_69);
      }

      .st83 {
        fill: url(#_무제_그라디언트_68);
      }

      .st84 {
        fill: url(#_무제_그라디언트_67);
      }

      .st85 {
        fill: url(#_무제_그라디언트_66);
      }

      .st86 {
        fill: url(#_무제_그라디언트_49);
      }

      .st87 {
        fill: url(#_무제_그라디언트_65);
      }

      .st88 {
        fill: url(#_무제_그라디언트_64);
      }

      .st89 {
        fill: url(#_무제_그라디언트_51);
      }

      .st90 {
        fill: url(#_무제_그라디언트_50);
      }

      .st91 {
        fill: url(#_무제_그라디언트_53);
      }

      .st92 {
        fill: url(#_무제_그라디언트_52);
      }

      .st93 {
        fill: url(#_무제_그라디언트_58);
      }

      .st94 {
        fill: url(#_무제_그라디언트_79);
      }

      .st95 {
        fill: url(#_무제_그라디언트_78);
      }

      .st96 {
        fill: url(#_무제_그라디언트_77);
      }

      .st97 {
        fill: url(#_무제_그라디언트_76);
      }

      .st98 {
        fill: url(#_무제_그라디언트_59);
      }

      .st99 {
        fill: url(#_무제_그라디언트_75);
      }

      .st100 {
        fill: url(#_무제_그라디언트_74);
      }

      .st101 {
        fill: url(#_무제_그라디언트_44);
      }

      .st102 {
        fill: url(#_무제_그라디언트_45);
      }

      .st103 {
        fill: url(#_무제_그라디언트_47);
      }

      .st104 {
        fill: url(#_무제_그라디언트_46);
      }

      .st105 {
        fill: #a4c7ea;
      }

      .st106 {
        fill: #aea6ba;
      }

      .st107 {
        fill: #fbbd9e;
      }

      .st108 {
        fill: #dff9e1;
      }

      .st13 {
        fill: url(#_무제_그라디언트_34);
        mix-blend-mode: screen;
        opacity: .5;
      }

      .st109 {
        clip-path: url(#clippath);
      }

      .st9 {
        mix-blend-mode: multiply;
        opacity: .2;
      }

      .st110 {
        fill: #8db2dc;
      }

      .st111 {
        fill: #2f2f96;
      }
    </style>
    <linearGradient id="_무제_그라디언트" data-name="무제 그라디언트" x1="294.7" y1="633.7" x2="319.1" y2="633.7" gradientTransform="translate(0 -392)" gradientUnits="userSpaceOnUse">
      <stop offset="0" stop-color="#8db2dc"/>
      <stop offset="1" stop-color="#82a2cb"/>
    </linearGradient>
    <linearGradient id="_무제_그라디언트_2" data-name="무제 그라디언트 2" x1="308" y1="623" x2="330.1" y2="623" gradientTransform="translate(0 -392)" gradientUnits="userSpaceOnUse">
      <stop offset="0" stop-color="#cbe3ff"/>
      <stop offset="1" stop-color="#e4ffd9"/>
    </linearGradient>
    <linearGradient id="_무제_그라디언트_3" data-name="무제 그라디언트 3" x1="316.2" y1="627.8" x2="310.9" y2="637" gradientTransform="translate(0 -392)" gradientUnits="userSpaceOnUse">
      <stop offset="0" stop-color="#8db2dc"/>
      <stop offset="1" stop-color="#82a2cb"/>
    </linearGradient>
    <linearGradient id="_무제_그라디언트_4" data-name="무제 그라디언트 4" x1="322" y1="627.8" x2="327.3" y2="637" gradientTransform="translate(0 -392)" gradientUnits="userSpaceOnUse">
      <stop offset="0" stop-color="#bbdaff"/>
      <stop offset="1" stop-color="#abc8eb"/>
    </linearGradient>
    <linearGradient id="_무제_그라디언트_5" data-name="무제 그라디언트 5" x1="361.8" y1="709" x2="372.8" y2="709" gradientTransform="translate(0 -392)" gradientUnits="userSpaceOnUse">
      <stop offset="0" stop-color="#8db2dc"/>
      <stop offset="1" stop-color="#82a2cb"/>
    </linearGradient>
    <linearGradient id="_무제_그라디언트_6" data-name="무제 그라디언트 6" x1="367.4" y1="703.5" x2="378.1" y2="703.5" gradientTransform="translate(0 -392)" gradientUnits="userSpaceOnUse">
      <stop offset="0" stop-color="#cbe3ff"/>
      <stop offset="1" stop-color="#e4ffd9"/>
    </linearGradient>
    <linearGradient id="_무제_그라디언트_7" data-name="무제 그라디언트 7" x1="371.4" y1="705.8" x2="368.8" y2="710.3" gradientTransform="translate(0 -392)" gradientUnits="userSpaceOnUse">
      <stop offset="0" stop-color="#8db2dc"/>
      <stop offset="1" stop-color="#82a2cb"/>
    </linearGradient>
    <linearGradient id="_무제_그라디언트_8" data-name="무제 그라디언트 8" x1="374.2" y1="705.8" x2="376.8" y2="710.3" gradientTransform="translate(0 -392)" gradientUnits="userSpaceOnUse">
      <stop offset="0" stop-color="#bbdaff"/>
      <stop offset="1" stop-color="#abc8eb"/>
    </linearGradient>
    <linearGradient id="_무제_그라디언트_9" data-name="무제 그라디언트 9" x1="52.7" y1="747.4" x2="63.6" y2="747.4" gradientTransform="translate(0 -392)" gradientUnits="userSpaceOnUse">
      <stop offset="0" stop-color="#8db2dc"/>
      <stop offset="1" stop-color="#82a2cb"/>
    </linearGradient>
    <linearGradient id="_무제_그라디언트_10" data-name="무제 그라디언트 10" x1="58.2" y1="741.9" x2="68.9" y2="741.9" gradientTransform="translate(0 -392)" gradientUnits="userSpaceOnUse">
      <stop offset="0" stop-color="#cbe3ff"/>
      <stop offset="1" stop-color="#e4ffd9"/>
    </linearGradient>
    <linearGradient id="_무제_그라디언트_11" data-name="무제 그라디언트 11" x1="62.3" y1="744.2" x2="59.7" y2="748.7" gradientTransform="translate(0 -392)" gradientUnits="userSpaceOnUse">
      <stop offset="0" stop-color="#8db2dc"/>
      <stop offset="1" stop-color="#82a2cb"/>
    </linearGradient>
    <linearGradient id="_무제_그라디언트_12" data-name="무제 그라디언트 12" x1="65" y1="744.2" x2="67.6" y2="748.7" gradientTransform="translate(0 -392)" gradientUnits="userSpaceOnUse">
      <stop offset="0" stop-color="#bbdaff"/>
      <stop offset="1" stop-color="#abc8eb"/>
    </linearGradient>
    <linearGradient id="_무제_그라디언트_13" data-name="무제 그라디언트 13" x1="149.9" y1="757.9" x2="174.2" y2="757.9" gradientTransform="translate(0 -392)" gradientUnits="userSpaceOnUse">
      <stop offset="0" stop-color="#8db2dc"/>
      <stop offset="1" stop-color="#82a2cb"/>
    </linearGradient>
    <linearGradient id="_무제_그라디언트_14" data-name="무제 그라디언트 14" x1="164.7" y1="772.7" x2="177.5" y2="772.7" gradientTransform="translate(0 -392)" gradientUnits="userSpaceOnUse">
      <stop offset="0" stop-color="#8db2dc"/>
      <stop offset="1" stop-color="#82a2cb"/>
    </linearGradient>
    <linearGradient id="_무제_그라디언트_15" data-name="무제 그라디언트 15" x1="163.2" y1="747.2" x2="185.2" y2="747.2" gradientTransform="translate(0 -392)" gradientUnits="userSpaceOnUse">
      <stop offset="0" stop-color="#cbe3ff"/>
      <stop offset="1" stop-color="#e4ffd9"/>
    </linearGradient>
    <linearGradient id="_무제_그라디언트_16" data-name="무제 그라디언트 16" x1="171.4" y1="752" x2="166" y2="761.2" gradientTransform="translate(0 -392)" gradientUnits="userSpaceOnUse">
      <stop offset="0" stop-color="#8db2dc"/>
      <stop offset="1" stop-color="#82a2cb"/>
    </linearGradient>
    <linearGradient id="_무제_그라디언트_17" data-name="무제 그라디언트 17" x1="177.1" y1="752" x2="182.4" y2="761.2" gradientTransform="translate(0 -392)" gradientUnits="userSpaceOnUse">
      <stop offset="0" stop-color="#bbdaff"/>
      <stop offset="1" stop-color="#abc8eb"/>
    </linearGradient>
    <linearGradient id="_무제_그라디언트_18" data-name="무제 그라디언트 18" x1="171.2" y1="766.3" x2="183.8" y2="766.3" gradientTransform="translate(0 -392)" gradientUnits="userSpaceOnUse">
      <stop offset="0" stop-color="#cbe3ff"/>
      <stop offset="1" stop-color="#e4ffd9"/>
    </linearGradient>
    <linearGradient id="_무제_그라디언트_19" data-name="무제 그라디언트 19" x1="175.9" y1="769" x2="172.9" y2="774.3" gradientTransform="translate(0 -392)" gradientUnits="userSpaceOnUse">
      <stop offset="0" stop-color="#8db2dc"/>
      <stop offset="1" stop-color="#82a2cb"/>
    </linearGradient>
    <linearGradient id="_무제_그라디언트_20" data-name="무제 그라디언트 20" x1="179.2" y1="769" x2="182.2" y2="774.3" gradientTransform="translate(0 -392)" gradientUnits="userSpaceOnUse">
      <stop offset="0" stop-color="#bbdaff"/>
      <stop offset="1" stop-color="#abc8eb"/>
    </linearGradient>
    <linearGradient id="_무제_그라디언트_21" data-name="무제 그라디언트 21" x1="244.3" y1="779.2" x2="252.9" y2="779.2" gradientTransform="translate(0 -392)" gradientUnits="userSpaceOnUse">
      <stop offset="0" stop-color="#8db2dc"/>
      <stop offset="1" stop-color="#82a2cb"/>
    </linearGradient>
    <linearGradient id="_무제_그라디언트_22" data-name="무제 그라디언트 22" x1="248.9" y1="775.3" x2="256.9" y2="775.3" gradientTransform="translate(0 -392)" gradientUnits="userSpaceOnUse">
      <stop offset="0" stop-color="#cbe3ff"/>
      <stop offset="1" stop-color="#e4ffd9"/>
    </linearGradient>
    <linearGradient id="_무제_그라디언트_23" data-name="무제 그라디언트 23" x1="251.9" y1="777.1" x2="250" y2="780.4" gradientTransform="translate(0 -392)" gradientUnits="userSpaceOnUse">
      <stop offset="0" stop-color="#8db2dc"/>
      <stop offset="1" stop-color="#82a2cb"/>
    </linearGradient>
    <linearGradient id="_무제_그라디언트_24" data-name="무제 그라디언트 24" x1="254" y1="777" x2="255.9" y2="780.4" gradientTransform="translate(0 -392)" gradientUnits="userSpaceOnUse">
      <stop offset="0" stop-color="#bbdaff"/>
      <stop offset="1" stop-color="#abc8eb"/>
    </linearGradient>
    <linearGradient id="_무제_그라디언트_25" data-name="무제 그라디언트 25" x1="10.1" y1="667" x2="246" y2="667" gradientTransform="translate(0 -392)" gradientUnits="userSpaceOnUse">
      <stop offset="0" stop-color="#8db2dc"/>
      <stop offset="1" stop-color="#82a2cb"/>
    </linearGradient>
    <linearGradient id="_무제_그라디언트_26" data-name="무제 그라디언트 26" x1="192.8" y1="684.3" x2="167.9" y2="684.3" gradientTransform="translate(0 -392)" gradientUnits="userSpaceOnUse">
      <stop offset="0" stop-color="#b5d3f7"/>
      <stop offset=".6" stop-color="#99c1ef"/>
      <stop offset=".8" stop-color="#90b5e1"/>
      <stop offset="1" stop-color="#83a3cc"/>
    </linearGradient>
    <linearGradient id="_무제_그라디언트_27" data-name="무제 그라디언트 27" x1="139" y1="671.8" x2="213.6" y2="671.8" gradientTransform="translate(0 -392)" gradientUnits="userSpaceOnUse">
      <stop offset="0" stop-color="#cbe3ff"/>
      <stop offset="1" stop-color="#e4ffd9"/>
    </linearGradient>
    <linearGradient id="_무제_그라디언트_28" data-name="무제 그라디언트 28" x1="146.4" y1="596.2" x2="154.4" y2="570.4" gradientTransform="translate(0 -392)" gradientUnits="userSpaceOnUse">
      <stop offset="0" stop-color="#cbe3ff"/>
      <stop offset="1" stop-color="#e4ffd9"/>
    </linearGradient>
    <linearGradient id="_무제_그라디언트_29" data-name="무제 그라디언트 29" x1="183" y1="718.1" x2="226" y2="718.1" gradientTransform="translate(0 -392)" gradientUnits="userSpaceOnUse">
      <stop offset="0" stop-color="#8db2dc"/>
      <stop offset="1" stop-color="#82a2cb"/>
    </linearGradient>
    <linearGradient id="_무제_그라디언트_30" data-name="무제 그라디언트 30" x1="187.1" y1="684.3" x2="277.5" y2="684.3" gradientTransform="translate(0 -392)" gradientUnits="userSpaceOnUse">
      <stop offset="0" stop-color="#cbe3ff"/>
      <stop offset="1" stop-color="#e4ffd9"/>
    </linearGradient>
    <linearGradient id="_무제_그라디언트_31" data-name="무제 그라디언트 31" x1="188.7" y1="696" x2="312.4" y2="696" gradientTransform="translate(0 -392)" gradientUnits="userSpaceOnUse">
      <stop offset="0" stop-color="#cbe3ff"/>
      <stop offset="1" stop-color="#e4ffd9"/>
    </linearGradient>
    <linearGradient id="_무제_그라디언트_32" data-name="무제 그라디언트 32" x1="307.1" y1="672.9" x2="351.5" y2="672.9" gradientTransform="translate(0 -392)" gradientUnits="userSpaceOnUse">
      <stop offset="0" stop-color="#8db2dc"/>
      <stop offset="1" stop-color="#82a2cb"/>
    </linearGradient>
    <linearGradient id="_무제_그라디언트_33" data-name="무제 그라디언트 33" x1="321.3" y1="678.1" x2="341.7" y2="663.9" gradientTransform="translate(0 -392)" gradientUnits="userSpaceOnUse">
      <stop offset="0" stop-color="#cbe3ff"/>
      <stop offset="1" stop-color="#e4ffd9"/>
    </linearGradient>
    <clipPath id="clippath">
      <path class="st0" d="M318.1,270.3s3.2,1.9,4.9,2c.6,0,1.1,0,1.2-.2.4-.2.6-.6.5-1.4l-.7-3.5s-3.1-2.8-4.5-1.2-1.8,3.1-1.3,4.2h-.1Z"/>
    </clipPath>
    <linearGradient id="_무제_그라디언트_34" data-name="무제 그라디언트 34" x1="328.1" y1="679.2" x2="342.6" y2="666.3" gradientTransform="translate(0 -392)" gradientUnits="userSpaceOnUse">
      <stop offset="0" stop-color="#000"/>
      <stop offset=".2" stop-color="#3c3c3c"/>
      <stop offset=".4" stop-color="gray"/>
      <stop offset=".6" stop-color="#b7b7b7"/>
      <stop offset=".8" stop-color="#dedede"/>
      <stop offset=".9" stop-color="#f6f6f6"/>
      <stop offset="1" stop-color="#fff"/>
    </linearGradient>
    <linearGradient id="_무제_그라디언트_35" data-name="무제 그라디언트 35" x1="299" y1="750.6" x2="326.2" y2="750.6" gradientTransform="translate(0 -392)" gradientUnits="userSpaceOnUse">
      <stop offset="0" stop-color="#8db2dc"/>
      <stop offset="1" stop-color="#82a2cb"/>
    </linearGradient>
    <linearGradient id="_무제_그라디언트_36" data-name="무제 그라디언트 36" x1="355.9" y1="660.7" x2="380.9" y2="660.7" gradientTransform="translate(0 -392)" gradientUnits="userSpaceOnUse">
      <stop offset="0" stop-color="#8db2dc"/>
      <stop offset="1" stop-color="#82a2cb"/>
    </linearGradient>
    <linearGradient id="_무제_그라디언트_37" data-name="무제 그라디언트 37" x1="112.5" y1="517.4" x2="298.5" y2="517.4" gradientTransform="translate(0 -392)" gradientUnits="userSpaceOnUse">
      <stop offset="0" stop-color="#cbe3ff"/>
      <stop offset="1" stop-color="#e4ffd9"/>
    </linearGradient>
    <clipPath id="clippath-1">
      <polygon class="st0" points="298.5 203.7 112.5 311 112.5 174.2 298.5 66.8 298.5 203.7"/>
    </clipPath>
    <linearGradient id="_무제_그라디언트_38" data-name="무제 그라디언트 38" x1="252.9" y1="551.4" x2="267.1" y2="551.4" gradientTransform="translate(0 -392)" gradientUnits="userSpaceOnUse">
      <stop offset="0" stop-color="#cbe3ff"/>
      <stop offset="1" stop-color="#e4ffd9"/>
    </linearGradient>
    <linearGradient id="_무제_그라디언트_39" data-name="무제 그라디언트 39" x1="241.6" y1="575.7" x2="251.1" y2="575.7" gradientTransform="translate(0 -392)" gradientUnits="userSpaceOnUse">
      <stop offset="0" stop-color="#8db2dc"/>
      <stop offset="1" stop-color="#82a2cb"/>
    </linearGradient>
    <linearGradient id="_무제_그라디언트_40" data-name="무제 그라디언트 40" x1="237.7" y1="560.5" x2="251.1" y2="560.5" gradientTransform="translate(0 -392)" gradientUnits="userSpaceOnUse">
      <stop offset="0" stop-color="#8db2dc"/>
      <stop offset="1" stop-color="#82a2cb"/>
    </linearGradient>
    <linearGradient id="_무제_그라디언트_41" data-name="무제 그라디언트 41" x1="241.6" y1="556.4" x2="251.1" y2="556.4" gradientTransform="translate(0 -392)" gradientUnits="userSpaceOnUse">
      <stop offset="0" stop-color="#8db2dc"/>
      <stop offset="1" stop-color="#82a2cb"/>
    </linearGradient>
    <linearGradient id="_무제_그라디언트_42" data-name="무제 그라디언트 42" x1="223.5" y1="576.6" x2="233" y2="576.6" gradientTransform="translate(0 -392)" gradientUnits="userSpaceOnUse">
      <stop offset="0" stop-color="#8db2dc"/>
      <stop offset="1" stop-color="#82a2cb"/>
    </linearGradient>
    <linearGradient id="_무제_그라디언트_43" data-name="무제 그라디언트 43" x1="243.3" y1="528.4" x2="262.3" y2="528.4" gradientTransform="translate(0 -392)" gradientUnits="userSpaceOnUse">
      <stop offset="0" stop-color="#cbe3ff"/>
      <stop offset="1" stop-color="#e4ffd9"/>
    </linearGradient>
    <linearGradient id="_무제_그라디언트_44" data-name="무제 그라디언트 44" x1="200.8" y1="590.1" x2="218.7" y2="590.1" gradientTransform="translate(0 -392)" gradientUnits="userSpaceOnUse">
      <stop offset="0" stop-color="#cbe3ff"/>
      <stop offset="1" stop-color="#e4ffd9"/>
    </linearGradient>
    <linearGradient id="_무제_그라디언트_45" data-name="무제 그라디언트 45" x1="200.8" y1="587.6" x2="218.7" y2="587.6" gradientTransform="translate(0 -392)" gradientUnits="userSpaceOnUse">
      <stop offset="0" stop-color="#8db2dc"/>
      <stop offset="1" stop-color="#82a2cb"/>
    </linearGradient>
    <linearGradient id="_무제_그라디언트_46" data-name="무제 그라디언트 46" x1="209.2" y1="575.1" x2="218.7" y2="575.1" gradientTransform="translate(0 -392)" gradientUnits="userSpaceOnUse">
      <stop offset="0" stop-color="#8db2dc"/>
      <stop offset="1" stop-color="#82a2cb"/>
    </linearGradient>
    <linearGradient id="_무제_그라디언트_47" data-name="무제 그라디언트 47" x1="197" y1="553" x2="222.4" y2="553" gradientTransform="translate(0 -392)" gradientUnits="userSpaceOnUse">
      <stop offset="0" stop-color="#cbe3ff"/>
      <stop offset="1" stop-color="#e4ffd9"/>
    </linearGradient>
    <linearGradient id="_무제_그라디언트_48" data-name="무제 그라디언트 48" x1="189.3" y1="586.5" x2="198.8" y2="586.5" gradientTransform="translate(0 -392)" gradientUnits="userSpaceOnUse">
      <stop offset="0" stop-color="#8db2dc"/>
      <stop offset="1" stop-color="#82a2cb"/>
    </linearGradient>
    <linearGradient id="_무제_그라디언트_49" data-name="무제 그라디언트 49" x1="181.3" y1="592.8" x2="195.5" y2="592.8" gradientTransform="translate(0 -392)" gradientUnits="userSpaceOnUse">
      <stop offset="0" stop-color="#cbe3ff"/>
      <stop offset="1" stop-color="#e4ffd9"/>
    </linearGradient>
    <linearGradient id="_무제_그라디언트_50" data-name="무제 그라디언트 50" x1="170" y1="617" x2="179.5" y2="617" gradientTransform="translate(0 -392)" gradientUnits="userSpaceOnUse">
      <stop offset="0" stop-color="#8db2dc"/>
      <stop offset="1" stop-color="#82a2cb"/>
    </linearGradient>
    <linearGradient id="_무제_그라디언트_51" data-name="무제 그라디언트 51" x1="166" y1="601.8" x2="179.5" y2="601.8" gradientTransform="translate(0 -392)" gradientUnits="userSpaceOnUse">
      <stop offset="0" stop-color="#8db2dc"/>
      <stop offset="1" stop-color="#82a2cb"/>
    </linearGradient>
    <linearGradient id="_무제_그라디언트_52" data-name="무제 그라디언트 52" x1="170" y1="597.7" x2="179.5" y2="597.7" gradientTransform="translate(0 -392)" gradientUnits="userSpaceOnUse">
      <stop offset="0" stop-color="#8db2dc"/>
      <stop offset="1" stop-color="#82a2cb"/>
    </linearGradient>
    <linearGradient id="_무제_그라디언트_53" data-name="무제 그라디언트 53" x1="151.9" y1="618" x2="161.3" y2="618" gradientTransform="translate(0 -392)" gradientUnits="userSpaceOnUse">
      <stop offset="0" stop-color="#8db2dc"/>
      <stop offset="1" stop-color="#82a2cb"/>
    </linearGradient>
    <linearGradient id="_무제_그라디언트_54" data-name="무제 그라디언트 54" x1="171.7" y1="569.8" x2="190.7" y2="569.8" gradientTransform="translate(0 -392)" gradientUnits="userSpaceOnUse">
      <stop offset="0" stop-color="#cbe3ff"/>
      <stop offset="1" stop-color="#e4ffd9"/>
    </linearGradient>
    <linearGradient id="_무제_그라디언트_55" data-name="무제 그라디언트 55" x1="93.6" y1="732.2" x2="165.6" y2="732.2" gradientTransform="translate(0 -392)" gradientUnits="userSpaceOnUse">
      <stop offset="0" stop-color="#8db2dc"/>
      <stop offset="1" stop-color="#82a2cb"/>
    </linearGradient>
    <linearGradient id="_무제_그라디언트_56" data-name="무제 그라디언트 56" x1="132.3" y1="703.2" x2="147.4" y2="703.2" gradientTransform="translate(0 -392)" gradientUnits="userSpaceOnUse">
      <stop offset="0" stop-color="#8db2dc"/>
      <stop offset="1" stop-color="#82a2cb"/>
    </linearGradient>
    <linearGradient id="_무제_그라디언트_57" data-name="무제 그라디언트 57" x1="133.2" y1="701.7" x2="149.2" y2="701.7" gradientTransform="translate(0 -392)" gradientUnits="userSpaceOnUse">
      <stop offset="0" stop-color="#bbdaff"/>
      <stop offset="1" stop-color="#abc8eb"/>
    </linearGradient>
    <linearGradient id="_무제_그라디언트_58" data-name="무제 그라디언트 58" x1="116" y1="712.6" x2="130.8" y2="712.6" gradientTransform="translate(0 -392)" gradientUnits="userSpaceOnUse">
      <stop offset="0" stop-color="#8db2dc"/>
      <stop offset="1" stop-color="#82a2cb"/>
    </linearGradient>
    <linearGradient id="_무제_그라디언트_59" data-name="무제 그라디언트 59" x1="116.8" y1="711.6" x2="132.7" y2="711.6" gradientTransform="translate(0 -392)" gradientUnits="userSpaceOnUse">
      <stop offset="0" stop-color="#bbdaff"/>
      <stop offset="1" stop-color="#abc8eb"/>
    </linearGradient>
    <linearGradient id="_무제_그라디언트_60" data-name="무제 그라디언트 60" x1="141" y1="702.9" x2="141.5" y2="702.9" gradientTransform="translate(0 -392)" gradientUnits="userSpaceOnUse">
      <stop offset="0" stop-color="#bbdaff"/>
      <stop offset="1" stop-color="#abc8eb"/>
    </linearGradient>
    <linearGradient id="_무제_그라디언트_61" data-name="무제 그라디언트 61" x1="124.5" y1="712.5" x2="124.9" y2="712.5" gradientTransform="translate(0 -392)" gradientUnits="userSpaceOnUse">
      <stop offset="0" stop-color="#bbdaff"/>
      <stop offset="1" stop-color="#abc8eb"/>
    </linearGradient>
    <linearGradient id="_무제_그라디언트_62" data-name="무제 그라디언트 62" x1="124.7" y1="706.6" x2="142.4" y2="706.6" gradientTransform="translate(0 -392)" gradientUnits="userSpaceOnUse">
      <stop offset="0" stop-color="#8db2dc"/>
      <stop offset="1" stop-color="#82a2cb"/>
    </linearGradient>
    <linearGradient id="_무제_그라디언트_63" data-name="무제 그라디언트 63" x1="124.7" y1="704.4" x2="147.8" y2="704.4" gradientTransform="translate(0 -392)" gradientUnits="userSpaceOnUse">
      <stop offset="0" stop-color="#cbe3ff"/>
      <stop offset="1" stop-color="#e4ffd9"/>
    </linearGradient>
    <linearGradient id="_무제_그라디언트_64" data-name="무제 그라디언트 64" x1="142.4" y1="710.2" x2="147.8" y2="710.2" gradientTransform="translate(0 -392)" gradientUnits="userSpaceOnUse">
      <stop offset="0" stop-color="#bbdaff"/>
      <stop offset="1" stop-color="#abc8eb"/>
    </linearGradient>
    <linearGradient id="_무제_그라디언트_65" data-name="무제 그라디언트 65" x1="142.4" y1="711.4" x2="143.8" y2="711.4" gradientTransform="translate(0 -392)" gradientUnits="userSpaceOnUse">
      <stop offset="0" stop-color="#bbdaff"/>
      <stop offset="1" stop-color="#abc8eb"/>
    </linearGradient>
    <linearGradient id="_무제_그라디언트_66" data-name="무제 그라디언트 66" x1="121.2" y1="718.6" x2="138.9" y2="718.6" gradientTransform="translate(0 -392)" gradientUnits="userSpaceOnUse">
      <stop offset="0" stop-color="#8db2dc"/>
      <stop offset="1" stop-color="#82a2cb"/>
    </linearGradient>
    <linearGradient id="_무제_그라디언트_67" data-name="무제 그라디언트 67" x1="121.2" y1="716.3" x2="144.3" y2="716.3" gradientTransform="translate(0 -392)" gradientUnits="userSpaceOnUse">
      <stop offset="0" stop-color="#cbe3ff"/>
      <stop offset="1" stop-color="#e4ffd9"/>
    </linearGradient>
    <linearGradient id="_무제_그라디언트_68" data-name="무제 그라디언트 68" x1="138.9" y1="722.2" x2="144.3" y2="722.2" gradientTransform="translate(0 -392)" gradientUnits="userSpaceOnUse">
      <stop offset="0" stop-color="#bbdaff"/>
      <stop offset="1" stop-color="#abc8eb"/>
    </linearGradient>
    <linearGradient id="_무제_그라디언트_69" data-name="무제 그라디언트 69" x1="138.9" y1="723.3" x2="140.3" y2="723.3" gradientTransform="translate(0 -392)" gradientUnits="userSpaceOnUse">
      <stop offset="0" stop-color="#bbdaff"/>
      <stop offset="1" stop-color="#abc8eb"/>
    </linearGradient>
    <linearGradient id="_무제_그라디언트_70" data-name="무제 그라디언트 70" x1="117.6" y1="730.5" x2="135.4" y2="730.5" gradientTransform="translate(0 -392)" gradientUnits="userSpaceOnUse">
      <stop offset="0" stop-color="#8db2dc"/>
      <stop offset="1" stop-color="#82a2cb"/>
    </linearGradient>
    <linearGradient id="_무제_그라디언트_71" data-name="무제 그라디언트 71" x1="117.6" y1="728.2" x2="140.7" y2="728.2" gradientTransform="translate(0 -392)" gradientUnits="userSpaceOnUse">
      <stop offset="0" stop-color="#cbe3ff"/>
      <stop offset="1" stop-color="#e4ffd9"/>
    </linearGradient>
    <linearGradient id="_무제_그라디언트_72" data-name="무제 그라디언트 72" x1="135.4" y1="734.1" x2="140.7" y2="734.1" gradientTransform="translate(0 -392)" gradientUnits="userSpaceOnUse">
      <stop offset="0" stop-color="#bbdaff"/>
      <stop offset="1" stop-color="#abc8eb"/>
    </linearGradient>
    <linearGradient id="_무제_그라디언트_73" data-name="무제 그라디언트 73" x1="135.4" y1="735.2" x2="136.8" y2="735.2" gradientTransform="translate(0 -392)" gradientUnits="userSpaceOnUse">
      <stop offset="0" stop-color="#bbdaff"/>
      <stop offset="1" stop-color="#abc8eb"/>
    </linearGradient>
    <linearGradient id="_무제_그라디언트_74" data-name="무제 그라디언트 74" x1="150.6" y1="713.7" x2="165.7" y2="713.7" gradientTransform="translate(0 -392)" gradientUnits="userSpaceOnUse">
      <stop offset="0" stop-color="#8db2dc"/>
      <stop offset="1" stop-color="#82a2cb"/>
    </linearGradient>
    <linearGradient id="_무제_그라디언트_75" data-name="무제 그라디언트 75" x1="151.5" y1="713.4" x2="167.6" y2="713.4" gradientTransform="translate(0 -392)" gradientUnits="userSpaceOnUse">
      <stop offset="0" stop-color="#bbdaff"/>
      <stop offset="1" stop-color="#abc8eb"/>
    </linearGradient>
    <linearGradient id="_무제_그라디언트_76" data-name="무제 그라디언트 76" x1="134.3" y1="723.2" x2="149.1" y2="723.2" gradientTransform="translate(0 -392)" gradientUnits="userSpaceOnUse">
      <stop offset="0" stop-color="#8db2dc"/>
      <stop offset="1" stop-color="#82a2cb"/>
    </linearGradient>
    <linearGradient id="_무제_그라디언트_77" data-name="무제 그라디언트 77" x1="128.4" y1="694.3" x2="151.9" y2="694.3" gradientTransform="translate(0 -392)" gradientUnits="userSpaceOnUse">
      <stop offset="0" stop-color="#8db2dc"/>
      <stop offset="1" stop-color="#82a2cb"/>
    </linearGradient>
    <linearGradient id="_무제_그라디언트_78" data-name="무제 그라디언트 78" x1="128.4" y1="691.5" x2="154.7" y2="691.5" gradientTransform="translate(0 -392)" gradientUnits="userSpaceOnUse">
      <stop offset="0" stop-color="#cbe3ff"/>
      <stop offset="1" stop-color="#e4ffd9"/>
    </linearGradient>
    <linearGradient id="_무제_그라디언트_79" data-name="무제 그라디언트 79" x1="135.1" y1="722.9" x2="151" y2="722.9" gradientTransform="translate(0 -392)" gradientUnits="userSpaceOnUse">
      <stop offset="0" stop-color="#bbdaff"/>
      <stop offset="1" stop-color="#abc8eb"/>
    </linearGradient>
    <linearGradient id="_무제_그라디언트_80" data-name="무제 그라디언트 80" x1="147.7" y1="697.8" x2="154.7" y2="697.8" gradientTransform="translate(0 -392)" gradientUnits="userSpaceOnUse">
      <stop offset="0" stop-color="#bbdaff"/>
      <stop offset="1" stop-color="#abc8eb"/>
    </linearGradient>
    <linearGradient id="_무제_그라디언트_81" data-name="무제 그라디언트 81" x1="159.4" y1="713.5" x2="159.8" y2="713.5" gradientTransform="translate(0 -392)" gradientUnits="userSpaceOnUse">
      <stop offset="0" stop-color="#bbdaff"/>
      <stop offset="1" stop-color="#abc8eb"/>
    </linearGradient>
    <linearGradient id="_무제_그라디언트_82" data-name="무제 그라디언트 82" x1="142.8" y1="723.1" x2="143.3" y2="723.1" gradientTransform="translate(0 -392)" gradientUnits="userSpaceOnUse">
      <stop offset="0" stop-color="#bbdaff"/>
      <stop offset="1" stop-color="#abc8eb"/>
    </linearGradient>
  </defs>
  <g class="st12">
    <g id="_레이어_11" data-name="_레이어_1">
      <rect class="st30" x="-5.1" y="-5.4" width="459" height="419.4"/>
      <g id="_1">
        <g>
          <polygon class="st5" points="319.1 249.7 307.7 249.7 294.7 242.2 309.3 233.8 319.1 249.7"/>
          <g id="Axonometric_Cube">
            <polygon id="Cube_face_-_top" class="st25" points="319.1 237.4 308 231 319.1 224.7 330.1 231 319.1 237.4"/>
            <polygon id="Cube_face_-_left" class="st26" points="319.1 249.7 308 243.3 308 231 319.1 237.4 319.1 249.7"/>
            <polygon id="Cube_face_-_right" class="st20" points="330.1 243.3 319.1 249.7 319.1 237.4 330.1 231 330.1 243.3"/>
          </g>
        </g>
        <g>
          <polygon class="st22" points="372.8 320.6 367.3 320.6 361.8 317.4 368.9 313.4 372.8 320.6"/>
          <g id="Axonometric_Cube-2">
            <polygon id="Cube_face_-_top-2" class="st19" points="372.8 314.6 367.4 311.5 372.8 308.5 378.1 311.5 372.8 314.6"/>
            <polygon id="Cube_face_-_left-2" class="st21" points="372.8 320.6 367.4 317.5 367.4 311.5 372.8 314.6 372.8 320.6"/>
            <polygon id="Cube_face_-_right-2" class="st23" points="378.1 317.5 372.8 320.6 372.8 314.6 378.1 311.5 378.1 317.5"/>
          </g>
        </g>
        <g>
          <polygon class="st24" points="63.6 359 58.1 359 52.7 355.8 59.7 351.8 63.6 359"/>
          <g id="Axonometric_Cube-3">
            <polygon id="Cube_face_-_top-3" class="st42" points="63.6 353 58.2 350 63.6 346.9 68.9 350 63.6 353"/>
            <polygon id="Cube_face_-_left-3" class="st36" points="63.6 359 58.2 355.9 58.2 350 63.6 353 63.6 359"/>
            <polygon id="Cube_face_-_right-3" class="st41" points="68.9 355.9 63.6 359 63.6 353 68.9 350 68.9 355.9"/>
          </g>
        </g>
        <g>
          <polygon class="st38" points="174.2 373.9 162.9 373.9 149.9 366.4 164.5 358 174.2 373.9"/>
          <polygon class="st35" points="177.5 385 171.1 385 164.7 381.3 173 376.5 177.5 385"/>
          <g>
            <g id="Axonometric_Cube-4">
              <polygon id="Cube_face_-_top-4" class="st39" points="174.2 361.6 163.2 355.2 174.2 348.9 185.2 355.2 174.2 361.6"/>
              <polygon id="Cube_face_-_left-4" class="st40" points="174.2 373.9 163.2 367.5 163.2 355.2 174.2 361.6 174.2 373.9"/>
              <polygon id="Cube_face_-_right-4" class="st33" points="185.2 367.5 174.2 373.9 174.2 361.6 185.2 355.2 185.2 367.5"/>
            </g>
            <g id="Axonometric_Cube-5">
              <polygon id="Cube_face_-_top-5" class="st37" points="177.5 378 171.2 374.4 177.5 370.7 183.8 374.4 177.5 378"/>
              <polygon id="Cube_face_-_left-5" class="st34" points="177.5 385 171.2 381.3 171.2 374.4 177.5 378 177.5 385"/>
              <polygon id="Cube_face_-_right-5" class="st51" points="183.8 381.3 177.5 385 177.5 378 183.8 374.4 183.8 381.3"/>
            </g>
          </g>
        </g>
        <g>
          <polygon class="st47" points="252.9 390.1 248.6 390.1 244.3 387.6 249.9 384.4 252.9 390.1"/>
          <g id="Axonometric_Cube-6">
            <polygon id="Cube_face_-_top-6" class="st43" points="252.9 385.6 248.9 383.3 252.9 381 256.9 383.3 252.9 385.6"/>
            <polygon id="Cube_face_-_left-6" class="st52" points="252.9 390.1 248.9 387.8 248.9 383.3 252.9 385.6 252.9 390.1"/>
            <polygon id="Cube_face_-_right-6" class="st50" points="256.9 387.8 252.9 390.1 252.9 385.6 256.9 383.3 256.9 387.8"/>
          </g>
        </g>
        <g>
          <path class="st49" d="M245,236.6l-88-7.8c-2.4-.2-4.8.3-6.8,1.5L10.8,310.8c-1.3.7-.8,2.7.6,2.8l86.9,7.7c2.1.2,4.2-.3,6.1-1.3l45.2-26.1,14.2,8.2c2.3,1.3,5.2,2,8.2,2h7.2s35.6-23.1,30.9-25.8l-16.8-9.7,52.1-30.1c.9-.5.6-1.8-.4-1.9h0Z"/>
          <g>
            <g class="st12">
              <path class="st48" d="M210.2,285.4l-24.1,14c-4.6,2.7-12.2,2.7-16.9,0l-30.1-17.4v2.7l30.1,17.4c4.7,2.7,12.3,2.7,16.9,0l24.1-14c2.3-1.3,3.5-3.1,3.5-4.9v-2.7c0,1.8-1.1,3.5-3.5,4.9Z"/>
              <path class="st46" d="M210.1,275.6l-30.1-17.4-41,23.8,30.1,17.4c4.7,2.7,12.3,2.7,16.9,0l24.1-14c4.7-2.7,4.6-7.1,0-9.8h0Z"/>
            </g>
            <g class="st12">
              <polygon class="st31" points="144.6 254.9 185.8 231.1 187.8 232.8 146.7 256.6 144.6 254.9"/>
              <polygon class="st16" points="146.7 256.6 187.8 232.8 182.3 259.4 141.1 283.2 146.7 256.6"/>
              <polygon class="st106" points="144.6 254.9 146.7 256.6 141.1 283.2 139 282 144.6 254.9"/>
            </g>
            <polygon class="st8" points="160.3 297 160.3 294.3 201.3 270.5 180 258.2 139 282 139 284.7 160.3 297"/>
            <path class="st45" d="M263.7,61.5c-.8-.3-1.8-.2-2.8.4l-174.5,100.7c-2.4,1.4-3.9,4.9-3.4,7.8l21.8,132.6c.3,1.7,1.2,2.8,2.3,3.2l1.5.5c-1.2-.4-2.1-1.5-2.3-3.2l-21.8-132.6c-.5-2.9,1-6.4,3.4-7.8l174.5-100.7c1-.6,2-.7,2.8-.4,0,0-1.5-.5-1.5-.5Z"/>
            <path class="st4" d="M289.3,198.1l-21.8-132.6c-.5-2.9-2.8-4.2-5.2-2.8l-174.5,100.7c-2.4,1.4-3.9,4.9-3.4,7.8l21.8,132.6c.5,2.9,2.8,4.2,5.2,2.9l174.5-100.7c2.4-1.4,3.9-4.9,3.4-7.8h0Z"/>
          </g>
        </g>
        <g>
          <path class="st44" d="M206.6,308.5l-23,13.3c-.9.5-.9,1.8,0,2.3l37.4,19.6h2.4l2.5-17.8-19.4-17.4h.1Z"/>
          <g class="st12">
            <path class="st58" d="M275.8,266.5l-88.7,51.5c.4-.2,1-.2,1.7.2l88.7-51.5c-.7-.4-1.2-.4-1.7-.2Z"/>
            <path class="st8" d="M191.1,322.2l88.7-51.5c0,.8-.3,1.4-.7,1.6l-88.7,51.5c.4-.2.7-.8.7-1.6h0Z"/>
            <polygon class="st1" points="223.7 341.4 312.4 289.9 312.3 292.2 223.5 343.7 223.7 341.4"/>
            <polygon class="st57" points="188.7 318.2 277.5 266.7 312.4 289.9 223.7 341.4 188.7 318.2"/>
            <path class="st8" d="M188.7,318.2l35,23.2-.2,2.3-32.4-21.5c0,1.6-1.1,2.2-2.4,1.4s-2.4-2.6-2.4-4.1,1.1-2.1,2.4-1.4h0Z"/>
          </g>
          <g>
            <g>
              <path class="st1" d="M272.8,272.8l3.7,2.4c.4.3,1.1.3,1.5.1l4-2.3c.2-.1.2-.2.3-.4v-.5c0,.1,0,.3-.2.4l-4,2.3c-.4.2-1,.2-1.5-.1l-3.7-2.4c-.2-.2-.4-.4-.3-.5v.5c0,.2,0,.4.3.5h0Z"/>
              <path class="st1" d="M266.4,276.5l3.7,2.4c.4.3,1.1.3,1.5,0l4-2.3c.2-.1.3-.2.3-.4v-.5c0,.1,0,.3-.2.4l-4,2.3c-.4.2-1,.2-1.5,0l-3.7-2.4c-.2-.1-.4-.4-.3-.5v.5c0,.2,0,.4.3.5h0Z"/>
              <path class="st1" d="M260,280.3l3.7,2.4c.4.3,1.1.3,1.5,0l4-2.3c.2-.1.3-.2.3-.4v-.5c0,.1,0,.3-.2.4l-4,2.3c-.4.2-1.1.2-1.5,0l-3.7-2.4c-.2-.1-.4-.4-.3-.5v.5c0,.2,0,.4.3.5h0Z"/>
              <path class="st1" d="M279,276v.5c0,.2,0,.4.3.5l3.7,2.4c.4.3,1.1.3,1.5.1l4-2.3c.2-.1.3-.2.3-.4v-.5c0,.1,0,.3-.2.4l-4,2.3c-.4.2-1,.2-1.5-.1l-3.7-2.4c-.2-.2-.4-.4-.4-.5h0Z"/>
              <path class="st1" d="M276.3,290.5l-9.7-6.3c-.3-.2-.5-.4-.4-.7v.5c0,.2.1.5.4.7l9.7,6.3c.5.4,1.4.4,1.8.1l16.7-9.8c.2-.1.3-.3.3-.5v-.5c0,.2,0,.4-.3.5l-16.7,9.8c-.5.3-1.3.2-1.8-.1Z"/>
              <path class="st1" d="M292,284.4v.5c0,.2,0,.4.3.5l3.7,2.4c.4.3,1.1.3,1.5.1l4-2.3c.2-.1.2-.2.3-.4v-.5c0,.1,0,.3-.2.4l-4,2.3c-.4.2-1,.2-1.5-.1l-3.7-2.4c-.2-.2-.4-.4-.3-.5h0Z"/>
              <path class="st1" d="M308,289.3l-4,2.3c-.4.2-1,.2-1.5-.1l-3.7-2.4c-.2-.2-.4-.4-.3-.5v.5c0,.2,0,.4.3.5l3.7,2.4c.4.3,1.1.3,1.5.1l4-2.3c.2-.1.3-.2.3-.4v-.5c0,.1,0,.3-.2.4h0Z"/>
              <path class="st1" d="M291.1,291.7l4-2.3c.2-.1.3-.2.3-.4v-.5c0,.1,0,.3-.2.4l-4,2.3c-.4.2-1,.2-1.5,0l-3.7-2.4c-.2-.1-.4-.4-.3-.5v.5c0,.2,0,.4.3.5l3.7,2.4c.4.3,1.1.3,1.5,0h0Z"/>
              <path class="st1" d="M301.6,293.1l-4,2.3c-.4.2-1,.2-1.5,0l-3.7-2.4c-.2-.1-.4-.4-.3-.5v.5c0,.2,0,.4.3.5l3.7,2.4c.4.3,1.1.3,1.5,0l4-2.3c.2-.1.3-.2.3-.4v-.5c0,.1,0,.3-.2.4h0Z"/>
              <path class="st1" d="M284.6,295.4l4-2.3c.2-.1.3-.2.3-.4v-.5c0,.1,0,.3-.2.4l-4,2.3c-.4.2-1.1.2-1.5-.1l-3.7-2.4c-.2-.1-.4-.4-.3-.5v.5c0,.2,0,.4.3.5l3.7,2.4c.4.3,1.1.3,1.5.1h0Z"/>
              <path class="st1" d="M295.1,296.9l-4,2.3c-.4.2-1.1.2-1.5-.1l-3.7-2.4c-.2-.1-.4-.4-.3-.5v.5c0,.2,0,.4.3.5l3.7,2.4c.4.3,1.1.3,1.5.1l4-2.3c.2-.1.3-.2.3-.4v-.5c0,.1,0,.3-.2.4h0Z"/>
              <path class="st1" d="M251.3,285.3l3.7,2.4c.4.3,1.1.3,1.5.1l6-3.5c.2-.1.3-.2.3-.4v-.5c0,.1,0,.3-.2.4l-6,3.5c-.4.2-1,.2-1.5-.1l-3.7-2.4c-.2-.2-.4-.4-.3-.5v.5c0,.2,0,.4.3.5h0Z"/>
              <path class="st1" d="M269.2,288l-4,2.3c-.4.2-1,.2-1.5,0l-3.7-2.4c-.2-.1-.4-.4-.3-.5v.5c0,.2,0,.4.3.5l3.7,2.4c.4.3,1.1.3,1.5,0l4-2.3c.2-.1.3-.2.3-.4v-.5c0,.1,0,.3-.2.4h0Z"/>
              <path class="st1" d="M269.4,296.2l6-3.5c.2-.1.3-.2.3-.4v-.5c0,.1,0,.3-.2.4l-6,3.5c-.4.2-1,.2-1.5-.1l-3.7-2.4c-.2-.2-.4-.4-.3-.5v.5c0,.2,0,.4.3.5l3.7,2.4c.4.3,1.1.3,1.5.1h0Z"/>
              <path class="st1" d="M278.1,299.2l4-2.3c.2-.1.3-.2.3-.4v-.5c0,.1,0,.3-.2.4l-4,2.3c-.4.2-1,.2-1.5,0l-3.7-2.4c-.2-.2-.4-.4-.3-.5v.5c0,.2,0,.4.3.5l3.7,2.4c.4.3,1.1.3,1.5,0h0Z"/>
              <path class="st1" d="M244.9,289.1l3.7,2.4c.4.3,1.1.3,1.5.1l4-2.3c.2-.1.2-.2.3-.4v-.5c0,.1,0,.3-.2.4l-4,2.3c-.4.2-1,.2-1.5-.1l-3.7-2.4c-.2-.2-.4-.4-.3-.5v.5c0,.2,0,.4.3.5h0Z"/>
              <path class="st1" d="M238.5,292.9l3.7,2.4c.4.3,1.1.3,1.5,0l4-2.3c.2-.1.3-.2.3-.4v-.5c0,.1,0,.3-.2.4l-4,2.3c-.4.2-1,.2-1.5,0l-3.7-2.4c-.2-.1-.4-.4-.3-.5v.5c0,.2,0,.4.3.5h0Z"/>
              <path class="st1" d="M232,296.6l3.7,2.4c.4.3,1.1.3,1.5,0l4-2.3c.2-.1.3-.2.3-.4v-.5c0,.1,0,.3-.2.4l-4,2.3c-.4.2-1.1.2-1.5,0l-3.7-2.4c-.2-.2-.4-.4-.3-.5v.5c0,.2,0,.4.3.5h0Z"/>
              <path class="st1" d="M257.3,294l-3.7-2.4c-.2-.2-.4-.4-.4-.5v.5c0,.2,0,.4.3.5l3.7,2.4c.4.3,1.1.3,1.5,0l4-2.3c.2-.1.3-.2.3-.4v-.5c0,.1,0,.3-.2.4l-4,2.3c-.4.2-1,.2-1.5,0h0Z"/>
              <path class="st1" d="M250.9,297.8l-3.7-2.4c-.2-.2-.4-.4-.4-.5v.5c0,.2,0,.4.3.5l3.7,2.4c.4.3,1.1.3,1.5.1l4-2.3c.2-.1.2-.2.3-.4v-.5c0,.1,0,.3-.2.4l-4,2.3c-.4.2-1,.2-1.5-.1h0Z"/>
              <path class="st1" d="M244.5,301.5l-3.7-2.4c-.2-.1-.4-.4-.3-.5v.5c0,.2,0,.4.3.5l3.7,2.4c.4.3,1.1.3,1.5.1l4-2.3c.2-.1.2-.2.3-.4v-.5c0,.1,0,.3-.2.4l-4,2.3c-.4.2-1,.2-1.5-.1h0Z"/>
              <path class="st1" d="M263,300l4-2.3c.2-.1.3-.2.3-.4v-.5c0,.1,0,.3-.2.4l-4,2.3c-.4.2-1,.2-1.5-.1l-3.7-2.4c-.2-.2-.4-.4-.4-.5v.5c0,.2,0,.4.3.5l3.7,2.4c.4.3,1.1.3,1.5.1h0Z"/>
              <path class="st1" d="M256.6,303.8l4-2.3c.2-.1.3-.2.3-.4v-.5c0,.1,0,.3-.2.4l-4,2.3c-.4.2-1.1.2-1.5-.1l-3.7-2.4c-.2-.2-.4-.4-.3-.5v.5c0,.2,0,.4.3.5l3.7,2.4c.4.3,1.1.3,1.5.1h0Z"/>
              <path class="st1" d="M225.6,300.4l3.7,2.4c.4.3,1.1.3,1.5.1l4-2.3c.2-.1.3-.2.3-.4v-.5c0,.1,0,.3-.2.4l-4,2.3c-.4.2-1.1.2-1.5-.1l-3.7-2.4c-.2-.2-.4-.4-.4-.5v.5c0,.2,0,.4.3.5h0Z"/>
              <path class="st1" d="M238,305.3l-3.7-2.4c-.2-.1-.4-.4-.3-.5v.5c0,.2,0,.4.3.5l3.7,2.4c.4.3,1.1.3,1.5,0l4-2.3c.2-.1.3-.2.3-.4v-.5c0,.1,0,.3-.2.4l-4,2.3c-.4.2-1,.2-1.5,0h0Z"/>
              <path class="st1" d="M250.1,307.5l4-2.3c.2-.1.3-.2.3-.4v-.5c0,.1,0,.3-.2.4l-4,2.3c-.4.2-1,.2-1.5,0l-3.7-2.4c-.2-.1-.4-.4-.3-.5v.5c0,.2,0,.4.3.5l3.7,2.4c.4.3,1.1.3,1.5,0h0Z"/>
              <path class="st1" d="M243.7,311.3l4-2.3c.2-.1.3-.2.3-.4v-.5c0,.1,0,.3-.2.4l-4,2.3c-.4.2-1,.2-1.5,0l-3.7-2.4c-.2-.2-.4-.4-.4-.5v.5c0,.2,0,.4.3.5l3.7,2.4c.4.3,1.1.3,1.5,0h0Z"/>
              <path class="st1" d="M219.2,304.1l3.7,2.4c.4.3,1.1.3,1.5.1l4-2.3c.2-.1.2-.2.3-.4v-.5c0,.1,0,.3-.2.4l-4,2.3c-.4.2-1,.2-1.5-.1l-3.7-2.4c-.2-.2-.4-.4-.4-.5v.5c0,.2,0,.4.3.5h0Z"/>
              <path class="st1" d="M231.6,309.1l-3.7-2.4c-.2-.1-.4-.4-.3-.5v.5c0,.2,0,.4.3.5l3.7,2.4c.4.3,1.1.3,1.5,0l4-2.3c.2-.1.3-.2.3-.4v-.5c0,.1,0,.3-.2.4l-4,2.3c-.4.2-1.1.2-1.5,0h0Z"/>
              <path class="st1" d="M237.3,315l4-2.3c.2-.1.2-.2.3-.4v-.5c0,.1,0,.3-.2.4l-4,2.3c-.4.2-1,.2-1.5-.1l-3.7-2.4c-.2-.2-.4-.4-.4-.5v.5c0,.2,0,.4.3.5l3.7,2.4c.4.3,1.1.3,1.5.1Z"/>
              <path class="st1" d="M288.3,300.6l-6,3.5c-.4.2-1,.2-1.5-.1l-3.7-2.4c-.2-.2-.4-.4-.4-.5v.5c0,.2,0,.4.3.5l3.7,2.4c.4.3,1.1.3,1.5.1l6-3.5c.2-.1.3-.2.3-.4v-.5c0,.1,0,.3-.2.4h0Z"/>
              <path class="st1" d="M271.7,303l4-2.3c.2-.1.2-.2.3-.4v-.5c0,.1,0,.3-.2.4l-4,2.3c-.4.2-1,.2-1.5,0l-3.7-2.4c-.2-.1-.4-.4-.3-.5v.5c0,.2,0,.4.3.5l3.7,2.4c.4.3,1.1.3,1.5,0h0Z"/>
              <path class="st1" d="M280,305.6l-29.7,17.4c-.4.2-1,.2-1.5-.1l-3.7-2.4c-.2-.2-.4-.4-.4-.5v.5c0,.2,0,.4.3.5l3.7,2.4c.4.3,1.1.3,1.5.1l29.7-17.4c.2-.1.3-.2.3-.4v-.5c0,.1,0,.3-.2.4h0Z"/>
              <path class="st1" d="M265.2,306.7l4-2.3c.2-.1.2-.2.3-.4v-.5c0,.1,0,.3-.2.4l-4,2.3c-.4.2-1,.2-1.5-.1l-3.7-2.4c-.2-.2-.4-.4-.3-.5v.5c0,.2,0,.4.3.5l3.7,2.4c.4.3,1.1.3,1.5.1h0Z"/>
              <path class="st1" d="M258.8,310.5l4-2.3c.2-.1.2-.2.3-.4v-.5c0,.1,0,.3-.2.4l-4,2.3c-.4.2-1,.2-1.5-.1l-3.7-2.4c-.2-.2-.4-.4-.3-.5v.5c0,.2,0,.4.3.5l3.7,2.4c.4.3,1.1.3,1.5.1h0Z"/>
              <path class="st1" d="M252.4,314.3l4-2.3c.2-.1.3-.2.3-.4v-.5c0,.1,0,.3-.2.4l-4,2.3c-.4.2-1,.2-1.5,0l-3.7-2.4c-.2-.1-.4-.4-.3-.5v.5c0,.2,0,.4.3.5l3.7,2.4c.4.3,1.1.3,1.5,0h0Z"/>
              <path class="st1" d="M246,318l4-2.3c.2-.1.3-.2.3-.4v-.5c0,.1,0,.3-.2.4l-4,2.3c-.4.2-1.1.2-1.5-.1l-3.7-2.4c-.2-.1-.4-.4-.3-.5v.5c0,.2,0,.4.3.5l3.7,2.4c.4.3,1.1.3,1.5.1h0Z"/>
              <path class="st1" d="M212.8,307.9l3.7,2.4c.4.3,1.1.3,1.5.1l4-2.3c.2-.1.2-.2.3-.4v-.5c0,.1,0,.3-.2.4l-4,2.3c-.4.2-1,.2-1.5-.1l-3.7-2.4c-.2-.2-.4-.4-.4-.5v.5c0,.2,0,.4.3.5h0Z"/>
              <path class="st1" d="M225.2,312.8l-3.7-2.4c-.2-.2-.4-.4-.4-.5v.5c0,.2,0,.4.3.5l3.7,2.4c.4.3,1.1.3,1.5,0l4-2.3c.2-.1.3-.2.3-.4v-.5c0,.1,0,.3-.2.4l-4,2.3c-.4.2-1.1.2-1.5,0h0Z"/>
              <path class="st1" d="M230.9,318.8l4-2.3c.2-.1.2-.2.3-.4v-.5c0,.1,0,.3-.2.4l-4,2.3c-.4.2-1,.2-1.5-.1l-3.7-2.4c-.2-.2-.4-.4-.3-.5v.5c0,.2,0,.4.3.5l3.7,2.4c.4.3,1.1.3,1.5.1h-.1Z"/>
              <path class="st1" d="M239.6,321.8l4-2.3c.2-.1.3-.2.3-.4v-.5c0,.1,0,.3-.2.4l-4,2.3c-.4.2-1,.2-1.5,0l-3.7-2.4c-.2-.2-.4-.4-.4-.5v.5c0,.2,0,.4.3.5l3.7,2.4c.4.3,1.1.3,1.5,0Z"/>
              <path class="st1" d="M247.8,324.4l-4,2.3c-.4.2-1,.2-1.5-.1l-3.7-2.4c-.2-.2-.4-.4-.3-.5v.5c0,.2,0,.4.3.5l3.7,2.4c.4.3,1.1.3,1.5.1l4-2.3c.2-.1.3-.2.3-.4v-.5c0,.1,0,.3-.2.4h0Z"/>
              <path class="st1" d="M206.3,311.7l3.7,2.4c.4.3,1.1.3,1.5,0l4-2.3c.2-.1.3-.2.3-.4v-.5c0,.1,0,.3-.2.4l-4,2.3c-.4.2-1.1.2-1.5,0l-3.7-2.4c-.2-.2-.4-.4-.3-.5v.5c0,.2,0,.4.3.5h-.1Z"/>
              <path class="st1" d="M218.8,316.6l-3.7-2.4c-.2-.2-.4-.4-.4-.5v.5c0,.2,0,.4.3.5l3.7,2.4c.4.3,1.1.3,1.5.1l4-2.3c.2-.1.3-.2.3-.4v-.5c0,.1,0,.3-.2.4l-4,2.3c-.4.2-1.1.2-1.5-.1h0Z"/>
              <path class="st1" d="M224.5,322.1c-.4.2-1.1.2-1.5,0l-3.7-2.4c-.2-.1-.4-.4-.3-.5v.5c0,.2,0,.4.3.5l3.7,2.4c.4.3,1.1.3,1.5,0l4-2.3c.2-.1.3-.2.3-.4v-.5c0,.1,0,.3-.2.4l-4,2.3h-.1Z"/>
              <path class="st1" d="M233.1,325.5l4-2.3c.2-.1.2-.2.3-.4v-.5c0,.1,0,.3-.2.4l-4,2.3c-.4.2-1,.2-1.5-.1l-3.7-2.4c-.2-.2-.4-.4-.4-.5v.5c0,.2,0,.4.3.5l3.7,2.4c.4.3,1.1.3,1.5.1h0Z"/>
              <path class="st1" d="M199.9,315.4l3.7,2.4c.4.3,1.1.3,1.5,0l4-2.3c.2-.1.2-.2.3-.4v-.5c0,.1,0,.3-.2.4l-4,2.3c-.4.2-1.1.2-1.5,0l-3.7-2.4c-.2-.1-.4-.4-.3-.5v.5c0,.2,0,.4.3.5h-.1Z"/>
              <path class="st1" d="M212.3,320.4l-3.7-2.4c-.2-.1-.4-.4-.3-.5v.5c0,.2,0,.4.3.5l3.7,2.4c.4.3,1.1.3,1.5,0l4-2.3c.2-.1.2-.2.3-.4v-.5c0,.1,0,.3-.2.4l-4,2.3c-.4.2-1.1.2-1.5,0h-.1Z"/>
              <path class="st1" d="M212.8,323.8l3.7,2.4c.4.3,1.1.3,1.5,0l4-2.3c.2-.1.3-.2.3-.4v-.5c0,.1,0,.3-.2.4l-4,2.3c-.4.2-1.1.2-1.5,0l-3.7-2.4c-.2-.1-.4-.4-.3-.5v.5c0,.2,0,.4.3.5h-.1Z"/>
              <path class="st1" d="M221.5,326.8l3.7,2.4c.4.3,1.1.3,1.5,0l4-2.3c.2-.1.2-.2.3-.4v-.5c0,.1,0,.3-.2.4l-4,2.3c-.4.2-1.1.2-1.5,0l-3.7-2.4c-.2-.2-.4-.4-.3-.5v.5c0,.2,0,.4.3.5h-.1Z"/>
              <path class="st1" d="M241.3,328.1l-4,2.3c-.4.2-1.1.2-1.5-.1l-3.7-2.4c-.2-.1-.4-.4-.3-.5v.5c0,.2,0,.4.3.5l3.7,2.4c.4.3,1.1.3,1.5.1l4-2.3c.2-.1.3-.2.3-.4v-.5c0,.1,0,.3-.2.4h0Z"/>
              <path class="st1" d="M202.9,319v-.5c0,.1,0,.3-.2.4l-4,2.3c-.4.2-1.1.2-1.5,0l-3.7-2.4c-.2-.1-.4-.4-.3-.5v.5c0,.2,0,.4.3.5l3.7,2.4c.4.3,1.1.3,1.5,0l4-2.3c.2-.1.2-.2.3-.4h-.1Z"/>
              <path class="st1" d="M211.6,322v-.5c0,.1,0,.3-.2.4l-6.1,3.5c-.4.2-1,.2-1.5-.1l-3.7-2.4c-.2-.2-.4-.4-.4-.5v.5c0,.2,0,.4.3.5l3.7,2.4c.4.3,1.1.3,1.5.1l6.1-3.5c.2-.1.3-.2.3-.4h0Z"/>
              <path class="st1" d="M215.8,327.4v-.5c0,.1,0,.3-.2.4l-4,2.3c-.4.2-1.1.2-1.5,0l-3.7-2.4c-.2-.2-.4-.4-.4-.5v.5c0,.2,0,.4.3.5l3.7,2.4c.4.3,1.1.3,1.5,0l4-2.3c.2-.1.3-.2.3-.4h0Z"/>
              <path class="st1" d="M224.5,330.4v-.5c0,.1,0,.3-.2.4l-6.1,3.5c-.4.2-1,.2-1.5-.1l-3.7-2.4c-.2-.2-.4-.4-.3-.5v.5c0,.2,0,.4.3.5l3.7,2.4c.4.3,1.1.3,1.5.1l6.1-3.5c.2-.1.2-.2.3-.4h-.1Z"/>
              <path class="st1" d="M234.9,331.9l-4,2.3c-.4.2-1.1.2-1.5,0l-3.7-2.4c-.2-.2-.4-.4-.3-.5v.5c0,.2,0,.4.3.5l3.7,2.4c.4.3,1.1.3,1.5,0l4-2.3c.2-.1.3-.2.3-.4v-.5c0,.1,0,.3-.2.4h-.1Z"/>
              <path class="st1" d="M228.5,335.7l-4,2.3c-.4.2-1.1.2-1.5,0l-3.7-2.4c-.2-.2-.4-.4-.4-.5v.5c0,.2,0,.4.3.5l3.7,2.4c.4.3,1.1.3,1.5,0l4-2.3c.2-.1.3-.2.3-.4v-.5c0,.1,0,.3-.2.4h0Z"/>
            </g>
            <g>
              <path class="st31" d="M272.9,272.3l3.7,2.4c.4.3,1.1.3,1.5.1l4-2.3c.4-.2.3-.6,0-.9l-3.7-2.4c-.4-.3-1.1-.3-1.5-.1l-4,2.3c-.4.2-.4.6,0,.9h0Z"/>
              <path class="st31" d="M266.4,276.1l3.7,2.4c.4.3,1.1.3,1.5,0l4-2.3c.4-.2.4-.6,0-.9l-3.7-2.4c-.4-.3-1.1-.3-1.5-.1l-4,2.3c-.4.2-.4.6,0,.9h0Z"/>
              <path class="st31" d="M260,279.8l3.7,2.4c.4.3,1.1.3,1.5,0l4-2.3c.4-.2.4-.6,0-.9l-3.7-2.4c-.4-.3-1.1-.3-1.5-.1l-4,2.3c-.4.2-.4.6,0,.9h0Z"/>
              <path class="st31" d="M279.4,276.5l3.7,2.4c.4.3,1.1.3,1.5.1l4-2.3c.4-.2.4-.6,0-.9l-3.7-2.4c-.4-.3-1.1-.3-1.5-.1l-4,2.3c-.4.2-.4.6,0,.9Z"/>
              <path class="st31" d="M283.2,280.4l-4.9-3.2c-.5-.4-1.3-.4-1.8-.1l-10.1,5.9c-.5.3-.4.8.1,1.1l9.7,6.3c.5.4,1.4.4,1.8.1l16.7-9.8c.5-.3.4-.8,0-1.1l-3.6-2.4c-.4-.2-.9-.3-1.2,0l-5.6,3.2c-.3.2-.7.1-1,0h-.1Z"/>
              <path class="st31" d="M292.3,285l3.7,2.4c.4.3,1.1.3,1.5.1l4-2.3c.4-.2.3-.6,0-.9l-3.7-2.4c-.4-.3-1.1-.3-1.5-.1l-4,2.3c-.4.2-.4.6,0,.9h0Z"/>
              <path class="st31" d="M307.9,288.4l-3.7-2.4c-.4-.3-1.1-.3-1.5-.1l-4,2.3c-.4.2-.4.6,0,.9l3.7,2.4c.4.3,1.1.3,1.5.1l4-2.3c.4-.2.4-.6,0-.9Z"/>
              <path class="st31" d="M291.1,291.2l4-2.3c.4-.2.4-.6,0-.9l-3.7-2.4c-.4-.3-1.1-.3-1.5-.1l-4,2.3c-.4.2-.4.6,0,.9l3.7,2.4c.4.3,1.1.3,1.5,0h0Z"/>
              <path class="st31" d="M301.5,292.2l-3.7-2.4c-.4-.3-1.1-.3-1.5-.1l-4,2.3c-.4.2-.4.6,0,.9l3.7,2.4c.4.3,1.1.3,1.5,0l4-2.3c.4-.2.4-.6,0-.9h0Z"/>
              <path class="st31" d="M284.7,295l4-2.3c.4-.2.4-.6,0-.9l-3.7-2.4c-.4-.3-1.1-.3-1.5-.1l-4,2.3c-.4.2-.4.6,0,.9l3.7,2.4c.4.3,1.1.3,1.5.1Z"/>
              <path class="st31" d="M295.1,296l-3.7-2.4c-.4-.3-1.1-.3-1.5-.1l-4,2.3c-.4.2-.4.6,0,.9l3.7,2.4c.4.3,1.1.3,1.5.1l4-2.3c.4-.2.4-.6,0-.9Z"/>
              <path class="st31" d="M251.3,284.9l3.7,2.4c.4.3,1.1.3,1.5.1l6-3.5c.4-.2.4-.6,0-.9l-3.7-2.4c-.4-.3-1.1-.3-1.5,0l-6,3.5c-.4.2-.4.6,0,.9h0Z"/>
              <path class="st31" d="M269.1,287.1l-3.7-2.4c-.4-.3-1.1-.3-1.5,0l-4,2.3c-.4.2-.4.6,0,.9l3.7,2.4c.4.3,1.1.3,1.5,0l4-2.3c.4-.2.4-.6,0-.9h0Z"/>
              <path class="st31" d="M269.4,295.8l6-3.5c.4-.2.4-.6,0-.9l-3.7-2.4c-.4-.3-1.1-.3-1.5,0l-6,3.5c-.4.2-.4.6,0,.9l3.7,2.4c.4.3,1.1.3,1.5.1h0Z"/>
              <path class="st31" d="M278.1,298.7l4-2.3c.4-.2.4-.6,0-.9l-3.7-2.4c-.4-.3-1.1-.3-1.5,0l-4,2.3c-.4.2-.4.6,0,.9l3.7,2.4c.4.3,1.1.3,1.5,0Z"/>
              <path class="st31" d="M244.9,288.6l3.7,2.4c.4.3,1.1.3,1.5.1l4-2.3c.4-.2.3-.6,0-.9l-3.7-2.4c-.4-.3-1.1-.3-1.5-.1l-4,2.3c-.4.2-.4.6,0,.9h0Z"/>
              <path class="st31" d="M238.5,292.4l3.7,2.4c.4.3,1.1.3,1.5,0l4-2.3c.4-.2.4-.6,0-.9l-3.7-2.4c-.4-.3-1.1-.3-1.5,0l-4,2.3c-.4.2-.4.6,0,.9h0Z"/>
              <path class="st31" d="M232.1,296.2l3.7,2.4c.4.3,1.1.3,1.5,0l4-2.3c.4-.2.4-.6,0-.9l-3.7-2.4c-.4-.3-1.1-.3-1.5-.1l-4,2.3c-.4.2-.4.6,0,.9h0Z"/>
              <path class="st31" d="M257.5,288.4l-4,2.3c-.4.2-.4.6,0,.9l3.7,2.4c.4.3,1.1.3,1.5,0l4-2.3c.4-.2.4-.6,0-.9l-3.7-2.4c-.4-.3-1.1-.3-1.5,0Z"/>
              <path class="st31" d="M251.1,292.1l-4,2.3c-.4.2-.3.6,0,.9l3.7,2.4c.4.3,1.1.3,1.5.1l4-2.3c.4-.2.4-.6,0-.9l-3.7-2.4c-.4-.3-1.1-.3-1.5-.1h0Z"/>
              <path class="st31" d="M244.7,295.9l-4,2.3c-.4.2-.3.6,0,.9l3.7,2.4c.4.3,1.1.3,1.5.1l4-2.3c.4-.2.3-.6,0-.9l-3.7-2.4c-.4-.3-1.1-.3-1.5-.1h0Z"/>
              <path class="st31" d="M263,299.5l4-2.3c.4-.2.4-.6,0-.9l-3.7-2.4c-.4-.3-1.1-.3-1.5-.1l-4,2.3c-.4.2-.4.6,0,.9l3.7,2.4c.4.3,1.1.3,1.5.1h0Z"/>
              <path class="st31" d="M256.6,303.3l4-2.3c.4-.2.4-.6,0-.9l-3.7-2.4c-.4-.3-1.1-.3-1.5,0l-4,2.3c-.4.2-.4.6,0,.9l3.7,2.4c.4.3,1.1.3,1.5.1h0Z"/>
              <path class="st31" d="M225.7,299.9l3.7,2.4c.4.3,1.1.3,1.5.1l4-2.3c.4-.2.4-.6,0-.9l-3.7-2.4c-.4-.3-1.1-.3-1.5,0l-4,2.3c-.4.2-.4.6,0,.9h0Z"/>
              <path class="st31" d="M238.2,299.7l-4,2.3c-.4.2-.4.6,0,.9l3.7,2.4c.4.3,1.1.3,1.5,0l4-2.3c.4-.2.4-.6,0-.9l-3.7-2.4c-.4-.3-1.1-.3-1.5,0h0Z"/>
              <path class="st31" d="M250.2,307l4-2.3c.4-.2.4-.6,0-.9l-3.7-2.4c-.4-.3-1.1-.3-1.5,0l-4,2.3c-.4.2-.4.6,0,.9l3.7,2.4c.4.3,1.1.3,1.5,0h0Z"/>
              <path class="st31" d="M243.7,310.8l4-2.3c.4-.2.4-.6,0-.9l-3.7-2.4c-.4-.3-1.1-.3-1.5,0l-4,2.3c-.4.2-.4.6,0,.9l3.7,2.4c.4.3,1.1.3,1.5,0Z"/>
              <path class="st31" d="M219.2,303.7l3.7,2.4c.4.3,1.1.3,1.5.1l4-2.3c.4-.2.4-.6,0-.9l-3.7-2.4c-.4-.3-1.1-.3-1.5-.1l-4,2.3c-.4.2-.4.6,0,.9Z"/>
              <path class="st31" d="M231.8,303.4l-4,2.3c-.4.2-.4.6,0,.9l3.7,2.4c.4.3,1.1.3,1.5,0l4-2.3c.4-.2.4-.6,0-.9l-3.7-2.4c-.4-.3-1.1-.3-1.5,0h0Z"/>
              <path class="st31" d="M237.3,314.6l4-2.3c.4-.2.4-.6,0-.9l-3.7-2.4c-.4-.3-1.1-.3-1.5-.1l-4,2.3c-.4.2-.3.6,0,.9l3.7,2.4c.4.3,1.1.3,1.5.1h0Z"/>
              <path class="st31" d="M271.7,302.5l4-2.3c.4-.2.4-.6,0-.9l-3.7-2.4c-.4-.3-1.1-.3-1.5,0l-4,2.3c-.4.2-.4.6,0,.9l3.7,2.4c.4.3,1.1.3,1.5,0Z"/>
              <path class="st31" d="M288.3,299.7l-3.7-2.4c-.4-.3-1.1-.3-1.5,0l-6,3.5c-.4.2-.3.6,0,.9l3.7,2.4c.4.3,1.1.3,1.5.1l6-3.5c.4-.2.4-.6,0-.9h0Z"/>
              <path class="st31" d="M265.3,306.3l4-2.3c.4-.2.3-.6,0-.9l-3.7-2.4c-.4-.3-1.1-.3-1.5-.1l-4,2.3c-.4.2-.4.6,0,.9l3.7,2.4c.4.3,1.1.3,1.5.1h0Z"/>
              <path class="st31" d="M258.9,310l4-2.3c.4-.2.3-.6,0-.9l-3.7-2.4c-.4-.3-1.1-.3-1.5-.1l-4,2.3c-.4.2-.4.6,0,.9l3.7,2.4c.4.3,1.1.3,1.5.1h0Z"/>
              <path class="st31" d="M252.4,313.8l4-2.3c.4-.2.4-.6,0-.9l-3.7-2.4c-.4-.3-1.1-.3-1.5,0l-4,2.3c-.4.2-.4.6,0,.9l3.7,2.4c.4.3,1.1.3,1.5,0h0Z"/>
              <path class="st31" d="M246,317.6l4-2.3c.4-.2.4-.6,0-.9l-3.7-2.4c-.4-.3-1.1-.3-1.5-.1l-4,2.3c-.4.2-.4.6,0,.9l3.7,2.4c.4.3,1.1.3,1.5.1Z"/>
              <path class="st31" d="M279.9,304.7l-3.7-2.4c-.4-.3-1.1-.3-1.5,0l-29.7,17.4c-.4.2-.4.6,0,.9l3.7,2.4c.4.3,1.1.3,1.5.1l29.7-17.4c.4-.2.4-.6,0-.9h0Z"/>
              <path class="st31" d="M212.8,307.5l3.7,2.4c.4.3,1.1.3,1.5.1l4-2.3c.4-.2.4-.6,0-.9l-3.7-2.4c-.4-.3-1.1-.3-1.5-.1l-4,2.3c-.4.2-.3.6,0,.9h0Z"/>
              <path class="st31" d="M225.4,307.2l-4,2.3c-.4.2-.4.6,0,.9l3.7,2.4c.4.3,1.1.3,1.5,0l4-2.3c.4-.2.4-.6,0-.9l-3.7-2.4c-.4-.3-1.1-.3-1.5,0h0Z"/>
              <path class="st31" d="M230.9,318.4l4-2.3c.4-.2.3-.6,0-.9l-3.7-2.4c-.4-.3-1.1-.3-1.5-.1l-4,2.3c-.4.2-.4.6,0,.9l3.7,2.4c.4.3,1.1.3,1.5.1h0Z"/>
              <path class="st31" d="M239.6,321.3l4-2.3c.4-.2.4-.6,0-.9l-3.7-2.4c-.4-.3-1.1-.3-1.5,0l-4,2.3c-.4.2-.4.6,0,.9l3.7,2.4c.4.3,1.1.3,1.5,0h0Z"/>
              <path class="st31" d="M247.7,323.5l-3.7-2.4c-.4-.3-1.1-.3-1.5-.1l-4,2.3c-.4.2-.4.6,0,.9l3.7,2.4c.4.3,1.1.3,1.5.1l4-2.3c.4-.2.4-.6,0-.9Z"/>
              <path class="st31" d="M206.4,311.2l3.7,2.4c.4.3,1.1.3,1.5,0l4-2.3c.4-.2.4-.6,0-.9l-3.7-2.4c-.4-.3-1.1-.3-1.5,0l-4,2.3c-.4.2-.4.6,0,.9h0Z"/>
              <path class="st31" d="M219,310.9l-4,2.3c-.4.2-.4.6,0,.9l3.7,2.4c.4.3,1.1.3,1.5.1l4-2.3c.4-.2.4-.6,0-.9l-3.7-2.4c-.4-.3-1.1-.3-1.5-.1Z"/>
              <path class="st31" d="M224.7,316.5c-.4-.3-1.1-.3-1.5,0l-4,2.3c-.4.2-.4.6,0,.9l3.7,2.4c.4.3,1.1.3,1.5,0l4-2.3c.4-.2.4-.6,0-.9l-3.7-2.4h0Z"/>
              <path class="st31" d="M233.2,325.1l4-2.3c.4-.2.4-.6,0-.9l-3.7-2.4c-.4-.3-1.1-.3-1.5-.1l-4,2.3c-.4.2-.3.6,0,.9l3.7,2.4c.4.3,1.1.3,1.5.1h0Z"/>
              <path class="st31" d="M199.9,315l3.7,2.4c.4.3,1.1.3,1.5,0l4-2.3c.4-.2.4-.6,0-.9l-3.7-2.4c-.4-.3-1.1-.3-1.5,0l-4,2.3c-.4.2-.4.6,0,.9h0Z"/>
              <path class="st31" d="M212.5,314.7l-4,2.3c-.4.2-.4.6,0,.9l3.7,2.4c.4.3,1.1.3,1.5,0l4-2.3c.4-.2.4-.6,0-.9l-3.7-2.4c-.4-.3-1.1-.3-1.5-.1h0Z"/>
              <path class="st31" d="M212.9,323.4l3.7,2.4c.4.3,1.1.3,1.5,0l4-2.3c.4-.2.4-.6,0-.9l-3.7-2.4c-.4-.3-1.1-.3-1.5,0l-4,2.3c-.4.2-.4.6,0,.9h0Z"/>
              <path class="st31" d="M221.5,326.4l3.7,2.4c.4.3,1.1.3,1.5,0l4-2.3c.4-.2.4-.6,0-.9l-3.7-2.4c-.4-.3-1.1-.3-1.5-.1l-4,2.3c-.4.2-.4.6,0,.9h0Z"/>
              <path class="st31" d="M241.3,327.2l-3.7-2.4c-.4-.3-1.1-.3-1.5-.1l-4,2.3c-.4.2-.4.6,0,.9l3.7,2.4c.4.3,1.1.3,1.5.1l4-2.3c.4-.2.4-.6,0-.9h0Z"/>
              <path class="st31" d="M202.6,318l-3.7-2.4c-.4-.3-1.1-.3-1.5,0l-4,2.3c-.4.2-.4.6,0,.9l3.7,2.4c.4.3,1.1.3,1.5,0l4-2.3c.4-.2.4-.6,0-.9h0Z"/>
              <path class="st31" d="M211.3,321l-3.7-2.4c-.4-.3-1.1-.3-1.5,0l-6.1,3.5c-.4.2-.3.6,0,.9l3.7,2.4c.4.3,1.1.3,1.5.1l6.1-3.5c.4-.2.4-.6,0-.9h0Z"/>
              <path class="st31" d="M215.5,326.4l-3.7-2.4c-.4-.3-1.1-.3-1.5-.1l-4,2.3c-.4.2-.4.6,0,.9l3.7,2.4c.4.3,1.1.3,1.5,0l4-2.3c.4-.2.4-.6,0-.9h0Z"/>
              <path class="st31" d="M224.2,329.4l-3.7-2.4c-.4-.3-1.1-.3-1.5,0l-6.1,3.5c-.4.2-.4.6,0,.9l3.7,2.4c.4.3,1.1.3,1.5.1l6.1-3.5c.4-.2.4-.6,0-.9h0Z"/>
              <path class="st31" d="M234.9,331l-3.7-2.4c-.4-.3-1.1-.3-1.5,0l-4,2.3c-.4.2-.4.6,0,.9l3.7,2.4c.4.3,1.1.3,1.5,0l4-2.3c.4-.2.4-.6,0-.9h0Z"/>
              <path class="st31" d="M228.4,334.8l-3.7-2.4c-.4-.3-1.1-.3-1.5,0l-4,2.3c-.4.2-.4.6,0,.9l3.7,2.4c.4.3,1.1.3,1.5,0l4-2.3c.4-.2.4-.6,0-.9h0Z"/>
            </g>
          </g>
        </g>
        <g>
          <g>
            <path class="st53" d="M335.4,270c-6.6-2.2-18.9-2.8-24.1.4-8.4,5.2-2.9,10,3.9,14.2,16.9,10.3,22.4,10.8,31.8,6.4,2.8-1.3,4.4-3.3,4.4-5.3s-4.5-11.9-16.1-15.7h.1Z"/>
            <g>
              <path class="st54" d="M351.3,282.8c-1.4-3.6-6.8-10.6-14.9-13.7-6.5-2.5-14.6-5-24.3.6-.4.2-.7.5-1,.7-3.5,2.6-3.4,6.9.4,9.5,6.9,4.8,15.2,9.4,15.2,9.4,2.1,1.1,4.3,2,6.5,2.6,5.6,1.4,10.5.9,14.7-1.5,2.6-1.5,4-3.5,4-5.6s-.2-1.1-.5-2h-.1Z"/>
              <path class="st8" d="M324.1,270.7l-2.7-1.5c-.8-.4-2-.5-3.1.5-.7.6-.4.8.4,1.2l2.8,1.3c.8.4,2.1.5,2.9,0,.7-.5.6-1.1-.2-1.5h0Z"/>
              <g class="st109">
                <g class="st12">
                  <path class="st31" d="M322.3,268.5c-.9-.5-1.8-.5-2.7,0l4,6.3c1.9-1.5,1-4.8-1.3-6.2h0Z"/>
                  <path class="st2" d="M323.6,271.6c-.5-1.2-1.4-2.3-2.3-2.8-.5-.3-.9-.4-1.3-.4s-.4,0-.6.2c-.2.1-.9.5-1.1,1.5-.7,2.4,2.1,6.4,4.9,4.9.8-.5,1-1.9.4-3.4h0Z"/>
                  <path class="st17" d="M321.6,272.3c-.3-.8-.9-1.4-1.4-1.8-.3-.2-.6-.2-.8-.2-.8,0-1.1,1.1-.6,2.2.3.8.9,1.5,1.4,1.8.3.2.6.2.8.2.8,0,1.1-1.1.6-2.2Z"/>
                  <path class="st3" d="M323.8,271.4s0-.2-.1-.3c-.3-.6-.6-1.1-1-1.6-.4-.4-.8-.8-1.2-1-.5-.3-.9-.4-1.3-.4s-.4,0-.6.2l-.3.2c.2,0,.4-.1.6-.2.4,0,.9.1,1.3.4.4.2.8.6,1.2,1,.4.5.8,1,1,1.6,0,0,0,.2.1.3.6,1.6.4,2.9-.4,3.4l.3-.2c.8-.5,1-1.9.4-3.4Z"/>
                </g>
              </g>
              <path class="st9" d="M348.4,288.6c-4.2,2.4-9.1,2.9-14.7,1.5-2.3-.6-4.5-1.5-6.5-2.6,0,0-8.4-4.5-15.2-9.4-2.1-1.5-3-3.4-2.9-5.4-1.1,2.4-.4,5.2,2.4,7.1,6.9,4.8,15.2,9.4,15.2,9.4,2.1,1.1,4.3,2,6.5,2.6,5.6,1.4,10.5.9,14.7-1.5,2.5-1.4,3.8-3.3,3.9-5.2-.6,1.2-1.8,2.4-3.4,3.4h0Z"/>
              <path class="st9" d="M348.1,289.5c-4.2,2.4-9.1,2.9-14.7,1.5-2.3-.6-4.5-1.5-6.5-2.6,0,0-8.4-4.5-15.2-9.4-2.2-1.6-3.2-3.7-2.8-5.8-.9,2.3,0,4.9,2.6,6.7,6.9,4.8,15.2,9.4,15.2,9.4,2.1,1.1,4.3,2,6.5,2.6,5.6,1.4,10.5.9,14.7-1.5,2.3-1.3,3.5-3,3.9-4.8-.5,1.4-1.7,2.7-3.6,3.8h-.1Z"/>
            </g>
          </g>
          <path class="st13" d="M340.9,271.6c-8.3-5-18.4,3.2-12.5,7.7,2.1,1.6,11.5,7.7,18.5,5.1,1.7-.6,2.5-2.5,1.9-4.2-1.1-2.9-4.5-6.6-7.9-8.6h0Z"/>
        </g>
        <g class="st12">
          <path class="st31" d="M280.2,33.2c-2.2-1.3-5.4-1.1-8.8.9l4.2,2.5c3.4-2,6.6-2.2,8.8-.9l-4.2-2.5Z"/>
          <polygon class="st31" points="271.3 34.1 241.6 51.2 245.9 53.7 275.6 36.5 271.3 34.1"/>
          <path class="st31" d="M245.9,53.7l-4.2-2.5c-6.9,4-12.4,13.5-12.4,21.4s1.4,6.7,3.6,7.9l4.2,2.4c-2.2-1.3-3.6-4-3.6-7.9,0-7.9,5.5-17.5,12.4-21.4h0Z"/>
          <g>
            <path class="st30" d="M275.6,36.5l-29.7,17.2c-6.9,4-12.4,13.5-12.4,21.4s5.6,11,12.4,7.1l29.7-17.2c6.9-4,12.4-13.5,12.4-21.4s-5.6-11-12.4-7.1h0Z"/>
            <path class="st31" d="M240.4,84.1c-1.2,0-2.4-.3-3.4-.9-2.4-1.4-3.8-4.3-3.8-8.2,0-7.9,5.6-17.6,12.5-21.6l29.7-17.2v.2c.1,0,0-.2,0-.2,3.4-2,6.6-2.3,9.1-.9,2.4,1.4,3.8,4.3,3.8,8.2,0,7.9-5.6,17.7-12.5,21.6l-29.7,17.2c-2,1.2-3.9,1.7-5.7,1.7h0ZM281.1,35.1c-1.7,0-3.5.6-5.4,1.7l-29.7,17.1c-6.8,3.9-12.2,13.4-12.2,21.2s1.3,6.4,3.5,7.7c2.3,1.3,5.3,1,8.5-.9l29.7-17.2c6.8-3.9,12.2-13.4,12.2-21.2s-1.3-6.4-3.5-7.7c-.9-.5-2-.8-3.1-.8h0Z"/>
          </g>
        </g>
        <g>
          <path class="st56" d="M324.5,354.3c-36-.3-29.4,8.6-8,8.6,1-.9,0-1.6,0-2.6s1-2.5,1.9-2.5l7.8.2s.3-3.7-1.6-3.7h0Z"/>
          <path class="st3" d="M327.3,356.8c0-.4-.3-.8-.6-1.1-.1,0-.3-.2-.4-.3-.8-.7-2.1-1.6-2.2-1.7-.8-.3-1.7-.6-2.2-.2-.4.2-.3,1-.2,1.3.5.7,3.1,3.3,3.4,3.4.8.5,2.3,0,2.2-.6v-.7h0Z"/>
          <path class="st3" d="M320,360.8c-.1-.2-2.2-.5-2.2-.5-.4,0-1.3-.2-1.8-.2-1.3,0-2.8-.5-3.3-.1-.3.2-.2,1.1,0,1.4.3.6,1,1.2,6.1,2.1.5,0,1,0,1.4-.2.3-.1.6-.4.5-.8-.2-.6-.6-1.5-.7-1.7h0Z"/>
          <g>
            <path class="st31" d="M324.1,353.1c-1.4-.5-2.7.5-2.3,1,.5.7,3.1,3.3,3.4,3.4.8.5,2.3,0,2.2-.6v-.8c0-.4-.2-.8-.6-1-.1,0-.3-.2-.4-.3-.8-.7-2.1-1.6-2.2-1.7h-.1Z"/>
            <path class="st31" d="M320,360.1c-.1-.2-2.2-.5-2.2-.5-.4,0-1.3-.2-1.8-.2-1.3,0-2.7,0-3.2.3-.3.2-.4.6-.2,1,.3.6,1,1.2,6.1,2.1.5,0,1,0,1.4-.2.3-.1.5-.3.3-.8-.2-.6-.4-1.6-.5-1.8h.1Z"/>
            <path class="st4" d="M316.8,333.5c-.1,1.1-.5,12.4-.4,13,.1,1.3.1,4,.1,6s.2,7.6.2,7.6c0,1.2,3,1.5,3.3.4l1-7.6c.3-1.7,0-3.1,0-4.8.2-2.3,1.7-8.9,2.7-12.7.1-.5-.1-1.1-.4-1.5-1.4-2.1-5.8-2.6-6.5-.3h0Z"/>
            <path class="st4" d="M327.2,344.2c-.4-2.4.3-5.1.2-7.5,0-1.4-.1-3.7-.7-5.2,0,0-.1-.1-.2,0-1.9.9-3.5.8-4.3,2.3l-.8,1.7c.3,2.1.7,4.6,1.2,7,.3,1.1.4,2.2.7,3.6.1.6.2,1.3.3,1.9.2,1.3.2,1.9.2,2,0,1.3.4,2.4.5,5.2.1,1.1,2.8,1.4,2.8.4s.2-1.9.3-2.5c.5-2.3.7-3.8.4-6.1-.2-1.1-.4-1.6-.6-2.8h0Z"/>
            <path class="st32" d="M307,321.3s-.1-.1-.1-.2c0-.4-.2-1.5.6-2.7.8-1.1,1.7.8,1.7.8l-1,3-1.1-.9h-.1Z"/>
            <g class="st12">
              <path class="st31" d="M308.4,321.6l-3-6.9v-.3l4-2.5h-.2l-4,2.5s-.1.2,0,.3l3,6.9s.1.1.2.1h.2s-.1,0-.2-.2h0Z"/>
              <path class="st4" d="M312.7,318.9l-3-6.9c0-.1-.2-.2-.2-.1l-4,2.5s-.1.2,0,.3l3,6.9c0,.1.2.2.2.1l4-2.5s.1-.2,0-.3Z"/>
            </g>
            <path class="st32" d="M320,321.7c-1-.5-2.8-1.5-3.3-1.8l-1.1-1.4c-.2-.3-.6-.5-.9-.5-1.6-.3-1.5-.2-2.1,0-.3,0-.6.3-.6.3-.1.1-.4.2-.6.4-.1.1-.3.4-.1.5.1.1.3.1.5,0,1.4-.1,2.6.3,2.6.5s-.4.3-1.2.3h-.5c-.1,0-.2.3-.1.4h.1c.4.2.9.1,1.3.2.4,0,.7.1,1,.3.3.2.6.4.9.6.7.5,3.6,2.8,3.8,2.9-.2-1,.2-1.9.2-2.9h0v.2Z"/>
            <path class="st32" d="M315.7,320.5c-1.2,1.1-3.7,4.6-3.7,4.6,0,0-2.8-3-3.7-4.1,0-.8,0-1.1.5-1.8.3-.4,0-.6-.4-.5-.8.5-1.2.9-1.5,1.7,0,.3-.1.9.3,1.7.6,1.4,3.7,6.5,5,6.5s4.8-3.8,5.2-4.3c.5-.6-1.4-4.2-1.7-3.9h0Z"/>
            <path class="st31" d="M316.2,319.4c-1.5.5-1.6,2-1.2,3.1.1.4.3.2.4.6,1.2,2.5,1.6,5.4,1.5,8.2,0,1-.1,1.9-.2,2.4-.4,3.1,11,2.6,10.2-1.7-.4-1.9-.7-5-.1-6.7s1-3.5,1.4-5.3c.7-3.2-3.5-2.5-4.4-2.5s-5.6,1.2-7.6,2h0Z"/>
            <path class="st31" d="M315.5,319.8c-.7.6-2.2,2.7-3,3.7-.6.8,2.2,3.7,3.3,3,.4-.2,2.3-2.8,2.6-3,1.8-1.9-1.2-5.2-2.9-3.7h0Z"/>
            <g>
              <path class="st107" d="M321.2,319.5c1.5-.3,2.6-.9,2.5-1.5,0-.2-.3-.4-.5-.5-1.4.2-4.5,1-4.7,1.1-.1.1-.1.2-.1.3,0,.6,1.4.8,2.8.5h0Z"/>
              <path class="st107" d="M317.8,312.4c0,.1-.7.9-.8,1-.1.2.2.5.2.6,0,.2,0,.4-.1.6-.1.5-.2.9,0,1.3.3.5.9.5,1.2.9.1.1.2.3.2.5l.3,1.4c.4,1.2,4.6,0,4.2-.8-.2-.5-.3-1.2-.2-1.4.2-.3.6-.8.9-1.5.8-1.6.3-3.6-1.3-4.5-.5-.3-1.2-.6-2-.6s-1.7.1-2.3,1.1c-.2.4-.4.8-.5,1.4h.2Z"/>
              <path class="st4" d="M319.1,313c.2.1.2.4.1.6-.1.3-.3.6-.2.7,0,0,.1.1.2.1,0,0,.1,0,.2-.1.5-.6,1.4.1.6,1.1-.9,1.1-.4,1.7.5,2,1.1.3,2.6-.3,3.2-1.4.4-.7.8-1.6.8-2.4.3-2.4-1.6-4.3-4.2-4.4-2.1,0-2.2,1.6-2.2,2.3s.7,1.1,1.1,1.5h-.1Z"/>
            </g>
          </g>
        </g>
        <g>
          <g>
            <path class="st4" d="M221.2,300.5c.2.5.4.9.6,1.4.5,1.3.6,2.7.6,4.1v.2h.1c1.3.2,2.3-1.6,2.9-2.5.6-1,1.2-2.5,1-3.7-.2-1.6-1.1-3.6-2.9-3.6s-3,2.4-2.4,4.2h0Z"/>
            <path class="st3" d="M247.6,340.2c-.2-.5-3.4-3.5-3.5-4.2l-1.8.2c.3.2,0,.6-.2.9s-.2.5-.2.9c0,.8.8,1.4,1.3,2,.9,1.1,1.8,1.9,2.2,2.1.7.3,1.8.2,2.1-.6.2-.4.1-.8,0-1.3h.1Z"/>
            <path class="st3" d="M241.5,339.4c-.1-.2-.2-.4-.2-.6l-2.1-.3c-.3,0-.6.1-.7.4-.3.5-.6,1.1,0,1.6.2.2,2.8,2.7,3.8,3,1.5.5,3.3-.2,2.6-1.5-.3-.6-3.2-2.4-3.4-2.6h0Z"/>
            <path class="st31" d="M247.4,339.6c-.2-.5-3.2-3.6-3.3-4.4l-1.8.2c.3.2.2.6,0,1s-.3.6-.3,1c0,.8.7,1.2,1.3,1.8.9,1.1,1.8,1.9,2.2,2.1.7.3,1.6.4,1.9-.4.2-.4.1-.8,0-1.3h0Z"/>
            <path class="st31" d="M241.1,337.8l-1.7-.3c-.1.2-1.7,1.6-.9,2.3.2.2,2.8,2.7,3.8,3,1.5.5,3.2,0,2.5-1.4-.6-1.1-3.2-2.1-3.6-3.6h0Z"/>
            <path class="st4" d="M244.5,335.6c-.7-1.7-2.4-6.7-3-9.1,0-.3-.2-.7-.2-1.4s-.3-1.2-.8-1.7c-3.8-3.8-9.9-5.8-11.4-8l-2,6.8c2.9,2.1,10.4,3.5,10.7,3.6-.1,2.1.1,4.3,1.4,6,.9,1.1,2.8,3.9,2.9,4.2.2.7,2.7.4,2.4-.5h0Z"/>
            <path class="st4" d="M236.1,327.6c-.2-.6-.6-1.2-1.1-1.6-2-1.6-6.8-5-6.9-5.3-.2-.5.1-1,.4-1.4.3-.5.5-1.1.7-1.7.1-.3.2-.6.1-1-.1-.7-.9-1.3-.5-2l-7,1.6c-1.5,1.3-1.4,5,.2,7,.9,1,2.5,1.9,3.7,2.6,1.8,1.1,4.2,2.3,6.2,3.1,1.9,3.8,3.7,4.2,6.9,9.4.4.9,2.7,0,2.3-.7-5.6-8.7-4.4-8.1-5-10h0Z"/>
            <path class="st31" d="M235.3,317.9c-.3-1.3-2.9-6.7-3.3-7.6,0,0-.8-6.7-1.7-8.1-.3-.5-.9-.8-1.5-.6-.9.3-.9.9-.7,1.7.1.8,1.1,7.6,1.5,8.4.9,1.6,3.8,6.9,3.9,7,.4.8,2.2,0,2-.8h-.2Z"/>
            <path class="st31" d="M222.7,304.9c-1.1.9-1,1.8-.6,3,.4,1.3,1,2.5.9,3.9,0,1.4-1,2.7-1.5,4,0,.2-.2.5-.2.8,0,.8.8,1.2,1.5,1.5,2,.6,4.4.1,6-1.3.3-.2.6-.5.7-.9.3-1-1-2.1-.7-3.1.2-.8,1.1-1.1,1.7-1.7.5-.5.8-1.2.7-1.9-.1-1.4-1.4-2.5-1.7-3.9-.1-.7,0-1.5.1-2.2,0-.7-.2-1.5-1.1-1.4-.9,0-2.1,1.1-2.9,1.5s-2.1,1-3,1.8h.1Z"/>
            <path class="st29" d="M228.2,302.9c-.2-.1-.4-.2-.7-.3-.2,0-1.3-1.1-1.4-1-.5.7-.2,1.2-.9,2-1.3,1.4,2.5,4.2,3.4,1.5.1-.4.3-.7.3-1.1s-.4-1-.8-1.2h0Z"/>
            <g>
              <path class="st31" d="M225.2,297.3c.2.3.1.8-.2,1.1s-.9.4-1.1,0c-.2-.3-.1-.8.2-1.1s.9-.4,1.1,0Z"/>
              <g>
                <path class="st7" d="M230.1,303.6v-1.1c-.2-.9.5-2.2-.3-3.2-.9-1.1-1.5-.9-2.1-.7-1.1.4-3.9,1.4-3.5,2.5,1,2.6,2.3,3.4,3.1,3.7.6.3,1.9,1.1,2.4.4.2-.2.2-.6.3-.9,0-.2.1-.5.1-.7h0Z"/>
                <path class="st4" d="M229.4,298.3c-2.4-2.9-6.4-1-6.1,2,.3,2.7,2.2,3.5,2.6,3.7-.1-.2-.6-.9-.6-1.2s.2-.4.5-.3c.2,0,.3.2.4.3.1.1.5.8.5.2s-.1-.8.2-1c.2-.1.4-.2.5-.2.5-.2.9-.6,1.3-1,.3-.4,1.1-.4,1.2-.8.2-.5-.4-1.4-.7-1.7h.2Z"/>
              </g>
            </g>
            <path class="st31" d="M229.7,320.5c-1.2-1.2-5.9-5.8-5.9-5.8,0-2.5,1-9.2-1.7-9.2s-1.4.9-1.7,1.7c-.1.6-.2,7.9.6,8.8,1.1,1.3,4.9,4.4,7.4,5.6.8.3,1.9-.6,1.3-1.2h0Z"/>
            <path class="st7" d="M225.1,302.8c0,.6.4.9,1,1.1l.4-.6c-.7-1.4-1.4-1-1.4-.5h0Z"/>
          </g>
          <g>
            <g>
              <g class="st12">
                <path class="st28" d="M227.5,323.3v.2h0c0,.1,5.2,3.1,5.2,3.1h.3l7.4-4.3h0v-.2l-13,1.3h.1Z"/>
                <path class="st31" d="M240.5,321.9l-5.2-3h-.3l-7.4,4.3v.2l5.2,3h.3l7.4-4.3v-.2Z"/>
              </g>
              <path class="st18" d="M231.1,324.5l-.3.2h-.1l-.3-.2h0l.3-.2h.1l.3.2h0ZM231.7,324.1l-.3-.2h-.1l-.3.2h0l.3.2h.1l.3-.2h0ZM232.2,323.9l-.3-.2h-.1l-.3.2h0l.3.2h.1l.3-.2h0ZM232.7,323.5l-.3-.2h-.1l-.3.2h0l.3.2h.1l.3-.2h0ZM233.2,323.2l-.3-.2h-.1l-.3.2h0l.3.2h.1l.3-.2h0ZM233.8,322.9l-.3-.2h-.1l-.3.2h0l.3.2h.1l.3-.2h0ZM234.3,322.6l-.3-.2h-.1l-.3.2h0l.3.2h.1l.3-.2h0ZM234.8,322.3l-.3-.2h-.1l-.3.2h0l.3.2h.1l.3-.2h0ZM235.3,322l-.3-.2h-.1l-.3.2h0l.3.2h.1l.3-.2h0ZM236,321.6l-.3-.2h-.1l-.5.3h0l.3.2h.1l.5-.3h0ZM238,322.1l-.3-.2h-.1l-.3.2h0l.3.2h.1l.3-.2h0ZM238.6,321.8l-.3-.2h-.1l-.3.2h0l.3.2h.1l.3-.2h0ZM239.1,321.5l-.3-.2h-.1l-.3.2h0l.3.2h.1l.3-.2h0ZM238.5,322.4l-.3-.2h-.1l-.3.2h0l.3.2h.1l.3-.2h0ZM239.1,322.1l-.3-.2h-.1l-.3.2h0l.3.2h.1l.3-.2h0ZM239.6,321.8l-.3-.2h-.1l-.3.2h0l.3.2h.1l.3-.2h0ZM231.8,324.6l-.3-.2h-.1l-.5.3h0l.3.2h.1l.5-.3h0ZM232.3,324.3l-.3-.2h-.1l-.3.2h0l.3.2h.1l.3-.2h0ZM232.8,324l-.3-.2h-.1l-.3.2h0l.3.2h.1l.3-.2h0ZM233.4,323.7l-.3-.2h-.1l-.3.2h0l.3.2h.1l.3-.2h0ZM233.9,323.4l-.3-.2h-.1l-.3.2h0l.3.2h.1l.3-.2h0ZM234.4,323.1l-.3-.2h-.1l-.3.2h0l.3.2h.1l.3-.2h0ZM235,322.8l-.3-.2h-.1l-.3.2h0l.3.2h.1l.3-.2h0ZM235.5,322.5l-.3-.2h-.1l-.3.2h0l.3.2h.1l.3-.2h0ZM236,322.2l-.3-.2h-.1l-.3.2h0l.3.2h.1l.3-.2h0ZM236.5,321.9l-.3-.2h-.1l-.3.2h0l.3.2h.1l.3-.2h0ZM232.1,325l-.3-.2h-.1l-.3.2h0l.3.2h.1l.3-.2h0ZM232.6,324.7l-.3-.2h-.1l-.3.2h0l.3.2h.1l.3-.2h0ZM233.1,324.4l-.3-.2h-.1l-.3.2h0l.3.2h.1l.3-.2h0ZM233.7,324.1l-.3-.2h-.1l-.3.2h0l.3.2h.1l.3-.2h0ZM233,325.6l-.3-.2h-.1l-.3.2h0l.3.2h.1l.3-.2h0ZM233.6,325.3l-.3-.2h-.1l-.3.2h0l.3.2h.1l.3-.2h0ZM234.1,325l-.3-.2h-.1l-.3.2h0l.3.2h.1l.3-.2h0ZM234.6,324.6l-.3-.2h-.1l-.3.2h0l.3.2h.1l.3-.2h0ZM238,322.7l-.3-.2h-.1l-.5.3h0l.3.2h.1l.5-.3h0ZM234.2,323.8l-.3-.2h-.1l-.3.2h0l.3.2h.1l.3-.2h0ZM234.7,323.5l-.3-.2h-.1l-.3.2h0l.3.2h.1l.3-.2h0ZM235.2,323.2l-.3-.2h-.1l-.3.2h0l.3.2h.1l.3-.2h0ZM235.8,322.9l-.3-.2h-.1l-.3.2h0l.3.2h.1l.3-.2h0ZM236.3,322.6l-.3-.2h-.1l-.3.2h0l.3.2h.1l.3-.2h0ZM237,322.2l-.3-.2h-.1l-.5.3h0l.3.2h.1l.5-.3h0ZM232.7,325.2l-.3-.2h-.1l-.5.3h0l.3.2h.1l.5-.3h0ZM233.3,324.9l-.3-.2h-.1l-.3.2h0l.3.2h.1l.3-.2h0ZM233.8,324.6l-.3-.2h-.1l-.3.2h0l.3.2h.1l.3-.2h0ZM234.3,324.3l-.3-.2h-.1l-.3.2h0l.3.2h.1l.3-.2h0ZM234.9,324l-.3-.2h-.1l-.3.2h0l.3.2h.1l.3-.2h0ZM235.4,323.7l-.3-.2h-.1l-.3.2h0l.3.2h.1l.3-.2h0ZM235.9,323.4l-.3-.2h-.1l-.3.2h0l.3.2h.1l.3-.2h0ZM236.4,323l-.3-.2h-.1l-.3.2h0l.3.2h.1l.3-.2h0ZM237,322.8l-.3-.2h-.1l-.3.2h0l.3.2h.1l.3-.2h0ZM237.5,322.4l-.3-.2h-.1l-.3.2h0l.3.2h.1l.3-.2h0ZM236.6,321.3l-.3-.2h-.1l-.3.2h0l.3.2h.1l.3-.2h0ZM237.1,321l-.3-.2h-.1l-.3.2h0l.3.2h.1l.3-.2h0ZM237.6,320.7l-.3-.2h-.1l-.3.2h0l.3.2h.1l.3-.2h0ZM238.1,321l-.3-.2h-.1l-.3.2h0l.3.2h.1l.3-.2h0Z"/>
            </g>
            <path class="st7" d="M232.8,323.8h0c.2-.1.3-.3.3-.5.2-.7-.4-1.5-.8-2-.1-.2-.2-.4-.5-.5-.2,0-.4-.1-.6-.1-.5-.1-1.1,0-1.7,0s-1.5.8-1.1,1c.9.8,2,.9,2.2,1,.3.2.6.7.7,1,0,.2.1.4.3.5s.4.2.5,0c0,0,.1-.1.2-.2h.4v-.2Z"/>
            <path class="st7" d="M236,319.5c-.4-.6-.6-1.1-.9-1.4-.3-.6-1.6-.2-1.5.4,0,.2.4,1.5.5,1.7.1.4.2,2,.6,2.1.4.1,2-.3,1.9-1,0,0-.2-1.1-.6-1.9h0Z"/>
            <g>
              <path class="st28" d="M233.1,326.6l1.8-5h0l-1.8,4.9h0Z"/>
              <path class="st31" d="M242.6,316.9h-.2l-7.2,4.2c-.2,0-.3.3-.4.4h0c0-.1.2-.3.4-.4l7.2-4.2h.2Z"/>
              <path class="st18" d="M242.5,317l-7.2,4.2c-.2,0-.3.3-.4.4l-1.8,5c0,.1,0,.2.2,0l7.2-4.2c.2,0,.3-.3.4-.4l1.8-5c0-.1,0-.2-.2,0h0Z"/>
            </g>
          </g>
        </g>
        <g>
          <path class="st55" d="M377.1,264.9s-16.9,0-20.6,3.6c-2.8,2.8,3.2,4.7,13.2,4,.2,0,.6-2.6.6-2.6l10.5-.5c.3,0-3.7-4.6-3.7-4.6h0Z"/>
          <g id="_16">
            <g>
              <path class="st15" d="M378.3,229.6c-.9.1-3.4.8-3.8.6-1.1-.6-2.8-2-3.2-2.5-.2-.3-.2-1.6-.1-2.3.2-1-.5-.9-.5-2v-.4c0-.1-.2-.2-.3-.2-.2,0-.3.7-.2.9,0,.2.2.4.2.7s-.2.5-.5,0c-.4-.7-1.4-2.5-1.7-2-.2.4,1.2,2,.9,2.2-.2.1-1.5-1.9-1.8-2h-.3c-.1.1,0,.4.1.5.3.3,1.5,2,1.4,2.1-.2.1-1.5-1.8-1.9-1.8s-.2,0-.2.2c0,.4,1.1,1.5,1.4,1.8.1.2.4.4.2.5-.2.2-1.2-1.3-1.5-1.1-.3.4.5.9,2.6,3.2,1.2,1.3,4.6,5.1,5.6,5.4.9.3,3.5-.2,3.5-.2.5-.2,1.4-.7,1.7-1.1.5-.7.3-2.8-1.5-2.5h-.1Z"/>
              <path class="st31" d="M373.5,269.5v-.5l-2.3.2c-3.8.2-5.7,0-5.7,1.4-.5,2.6,5.2,2.3,7.8,1.9,1.4-.2.2-2.5.1-3.1h.1Z"/>
              <path class="st31" d="M381.5,265.6l-1.6-1.2c-.3-.4-.2-.5-.6-.8-.6-.5-2.5-.3-2.5.7s0,.9.2,1.1c.3.6,1.8,2.7,2.2,3.2.9,1.4,2.9,1.1,2.9.1s.1-.4-.5-3.1h-.1Z"/>
              <path class="st4" d="M382.1,259.5c0-.6-.1-1.2-.2-1.8-1.6-8.2-.2-11.7-1.5-13.9l-10.8,2.2c-.9,6.9.4,7,.4,11s.1,3,0,4.5c-.1,3.7.8,5.5.5,7.8,0,1.1,3.3,1.2,3.2.2,0-2.6,1.1-6,.6-8.4-.1-.7-.2-1.5-.2-2.2s.2-3,1.6-7.6c0,0,1.6,4.9,1.6,6.3v1c0,1.2.3,2.3.7,3.4.3.9.6,2.1.6,4.2s3.1,1.3,3,.3c-.1-3.2.4-4.6.3-7h.2Z"/>
              <path class="st31" d="M380.4,226.1c4.6-.5-1,10.5.5,18.9,1.2,5.1-12.4,5.7-11.5,1.4.6-3.7,2.1-8.6,1.6-12.6-.1-.9-.6-2.1-.2-3,.3-.8,7.5-4.4,9.6-4.7h0Z"/>
            </g>
            <path class="st15" d="M369.6,232.8c-1.1,1.6-4.1,4.5-4.1,4.5,0,0-3.6.5-3.8.5-.5,0-1.5-1.5-1.7-1.8-.1-.3-.4-.6-.7-.7-.5-.3-.8,0-1.3,0-.8,0-1.6,0-1.8.9-.2,1-.4,2.3.6,2.7,1.3.5,3.4.9,3.4.9.3,0,5.5.9,5.9.8.3,0,6.1-4.1,6.5-4.7.4-.8-2.8-3.5-3.1-3.1h.1Z"/>
            <path class="st31" d="M371.9,230.4c-.2-.1-.8,0-1,.2-.7.7-3.3,3.4-4.1,4.5-.7.9,2.1,4,3.4,3.3.5-.3,3.4-2.5,3.6-2.9.4-1-.7-4.4-1.8-5.1h-.1Z"/>
            <g class="st12">
              <path class="st31" d="M366.5,215.3c-1.3-.8-3.1-.7-5.2.5l2.5,1.4c2-1.2,3.9-1.3,5.2-.5l-2.5-1.4Z"/>
              <polygon class="st31" points="361.3 215.8 349.8 222.4 352.3 223.9 363.8 217.2 361.3 215.8"/>
              <path class="st31" d="M352.3,223.9l-2.5-1.4c-4,2.3-7.3,7.9-7.3,12.6s.8,3.9,2.1,4.7l2.5,1.4c-1.3-.8-2.1-2.4-2.1-4.7,0-4.6,3.2-10.2,7.3-12.6Z"/>
              <path class="st6" d="M363.8,217.2l-11.5,6.7c-4,2.3-7.3,7.9-7.3,12.6s3.3,6.5,7.3,4.2l11.5-6.7c4-2.3,7.3-7.9,7.2-12.6,0-4.6-3.3-6.5-7.3-4.2h0Z"/>
              <path class="st31" d="M364.1,225.9v-1.6l-1.4.6c-.1-.5-.3-.9-.6-1.2l.8-1.6-1.1-.5-1.1,1.5c-.5,0-1,0-1.5.2l-.2-1.3-1.6.9-.2,1.5c-.6.4-1.1,1-1.5,1.5l-1.1-.2-1.1,1.8.8.7c-.3.6-.5,1.3-.6,1.9l-1.4,1v1.6l1.4-.6c.1.5.3.9.6,1.2l-.8,1.6,1.1.5,1.1-1.5c.5,0,1,0,1.5-.2l.2,1.3,1.6-.9.2-1.5c.6-.4,1.1-1,1.5-1.5l1.1.2,1.1-1.8-.8-.7c.3-.6.5-1.3.6-1.9l1.4-1ZM358.1,230.6c-1.1.6-2,.2-2-.8s.9-2.5,2-3.1,2-.2,2,.8-.9,2.5-2,3.1Z"/>
            </g>
            <g>
              <path class="st15" d="M373.5,220.4c-.7.7-1,1.6-1,2.6v.3c0,.1-.2.2-.4.3s-.3.2-.2.4c0,.1.1.2.2.3v2.1c.1.4.6.5,1,.6.2,0,.3.1.4.4.2.7.2,1.1.2,1.6,0,1.1,4.6.2,4-1.3,0-.2-.2-.8,0-1.1.4-.6,1.6-1.1,1.7-3.2.2-4.5-4.2-4.9-5.9-3.1h0Z"/>
              <path class="st11" d="M374.2,224.5c-.1.6.9.6,1,.2.3-.6.9-.5,1.2,0,.3.5.1,1.1-.4,1.8-.2.3-.1.7.2.8,1.1.4,3.5-1.7,3.9-4.2.3-2-.2-3.2-1.7-4-.7-.4-1.9-.6-2.5-.6-2.4,0-3.5,1.5-3.3,3.2,0,.3.2.5.5.6.7.3,1.5.7,1.2,2.1h-.1Z"/>
            </g>
          </g>
        </g>
        <path class="st31" d="M67.8,173.1c0,1.2,1.1,1.6,2.4,1l3.9-1.9-3.9,2.6c-1.3.9-2.3,2.4-2.4,3.8l-.3,4.1-.3-3.7c0-1.2-1.1-1.6-2.4-1l-3.9,1.9,3.9-2.6c1.3-.9,2.3-2.4,2.4-3.8l.3-4.1.3,3.7Z"/>
        <path class="st31" d="M57.4,168.6c0,.3.3.4.7.3l1.1-.5-1.1.7c-.3.2-.6.7-.7,1.1v1.1l-.2-1c0-.3-.3-.4-.7-.3l-1.1.5,1.1-.7c.3-.2.6-.7.7-1.1v-1.1l.2,1Z"/>
        <path class="st108" d="M92.7,134.2c0,5.2-4.2,11.9-9.4,14.9-5.2,3-9.4,1.2-9.4-4s4.2-11.9,9.4-14.9c5.2-3,9.4-1.2,9.4,4Z"/>
        <path class="st31" d="M246.3,31.4c0,1.7-1.4,3.8-3,4.8-1.7,1-3,.4-3-1.3s1.4-3.8,3-4.8c1.7-1,3-.4,3,1.3Z"/>
        <g>
          <path class="st31" d="M299.4,53.1c.1,1.3,1.2,1.8,2.6,1.1l4.2-2-4.2,2.8c-1.4.9-2.5,2.6-2.6,4.1l-.4,4.4-.4-4c-.1-1.3-1.2-1.8-2.6-1.1l-4.2,2,4.2-2.8c1.4-.9,2.5-2.6,2.6-4.1l.4-4.4.4,4Z"/>
          <path class="st31" d="M307.5,65.1c0,.6.6.9,1.3.5l2.1-1-2.1,1.4c-.7.4-1.2,1.3-1.3,2l-.2,2.2-.2-2c0-.6-.6-.9-1.3-.5l-2.1,1,2.1-1.4c.7-.4,1.2-1.3,1.3-2l.2-2.2s.2,2,.2,2Z"/>
        </g>
        <g class="st12">
          <path class="st31" d="M145.4,59.2c-1.3-.8-3.1-.7-5.2.5l2.5,1.4c2-1.2,3.9-1.3,5.2-.5l-2.5-1.4Z"/>
          <polygon class="st31" points="140.2 59.7 128.7 66.3 131.2 67.8 142.7 61.1 140.2 59.7"/>
          <path class="st31" d="M131.2,67.8l-2.5-1.4c-4,2.3-7.3,7.9-7.3,12.6s.8,3.9,2.1,4.7l2.5,1.4c-1.3-.8-2.1-2.4-2.1-4.7,0-4.6,3.2-10.2,7.3-12.6Z"/>
          <g>
            <path class="st30" d="M128,85.2c-2.3,0-3.8-1.9-3.8-4.9,0-4.5,3.2-10.1,7.1-12.3l11.5-6.7c1.1-.6,2.2-1,3.1-1,2.3,0,3.8,1.9,3.8,4.9,0,4.5-3.2,10.1-7.1,12.3l-11.5,6.7c-1.1.6-2.2,1-3.1,1h0Z"/>
            <path class="st31" d="M146,60.6c2.1,0,3.5,1.8,3.5,4.6,0,4.4-3.1,9.9-7,12.1l-11.5,6.7c-1.1.6-2.1.9-3,.9-2.2,0-3.5-1.8-3.5-4.6,0-4.4,3.1-9.9,7-12.1l11.5-6.7c1.1-.6,2.1-.9,3-.9h0ZM146,60.1c-1,0-2.1.3-3.3,1l-11.5,6.7c-4,2.3-7.3,7.9-7.3,12.6s1.6,5.2,4,5.2,2.1-.3,3.3-1l11.5-6.7c4-2.3,7.3-7.9,7.2-12.6,0-3.3-1.6-5.2-4-5.2h.1Z"/>
          </g>
        </g>
        <path class="st4" d="M152.8,71.8c0,2.4-2,5.5-4.4,6.9s-4.4.6-4.4-1.9,2-5.5,4.4-6.9,4.4-.6,4.4,1.9Z"/>
        <polygon class="st6" points="298.5 203.7 112.5 311 112.5 174.2 298.5 66.8 298.5 203.7"/>
        <polygon class="st60" points="298.5 76.8 112.5 184.1 112.5 174.2 298.5 66.8 298.5 76.8"/>
        <g class="st27">
          <path class="st111" d="M128.4,165.5l-65.8,38c-7,4-12.7,13.8-12.6,21.9,0,8,5.7,11.3,12.7,7.2l65.8-38c7-4,12.6-13.8,12.6-21.9s-5.7-11.3-12.7-7.2Z"/>
        </g>
        <g class="st12">
          <path class="st31" d="M141.8,148.7c-2.3-1.3-5.5-1.1-9,.9l4.3,2.5c3.5-2,6.7-2.2,9-.9l-4.3-2.5Z"/>
          <polygon class="st31" points="132.8 149.6 99.6 168.8 103.9 171.3 137.1 152.1 132.8 149.6"/>
          <path class="st31" d="M103.9,171.3l-4.3-2.5c-7,4-12.7,13.8-12.6,21.9,0,4,1.4,6.8,3.7,8.1l4.3,2.5c-2.3-1.3-3.7-4.1-3.7-8.1,0-8,5.6-17.8,12.6-21.9Z"/>
          <path class="st6" d="M137.1,152.1l-33.2,19.2c-7,4-12.7,13.8-12.6,21.9,0,8,5.7,11.3,12.7,7.2l33.2-19.2c7-4,12.6-13.8,12.6-21.9s-5.7-11.3-12.7-7.2h0Z"/>
        </g>
        <path class="st31" d="M288.6,91.5l-5.7,3.3v-1.1l5.7-3.3v1.1ZM288.6,93.6l-5.7,3.3v1.1l5.7-3.3v-1.1ZM288.6,96.9l-5.7,3.3v1.1l5.7-3.3v-1.1Z"/>
        <g>
          <path class="st31" d="M148.3,272.3c-1.6.9-2.6.6-2.7-.4l1.8-1c0,.4.4.4.9.2.5-.3.7-.6.7-.9,0-.9-3.2,1.6-3.2-.6s.9-2.3,2.4-3.2c1.5-.9,2.3-.5,2.4.6l-1.6,1c0-.4-.4-.5-.9-.2-.4.2-.6.5-.6.8,0,.9,3.1-1.5,3.2.6,0,1-.9,2.3-2.4,3.1h0Z"/>
          <path class="st31" d="M154.5,268.8c-1.7,1-3,.6-3-1.3s1.3-3.8,3-4.7c1.7-1,3-.6,3,1.2s-1.3,3.8-3.1,4.8h.1ZM154.5,267.2c.6-.4,1.2-1.2,1.2-2.2s-.6-1.1-1.2-.8c-.6.4-1.2,1.2-1.2,2.1s.5,1.1,1.2.8h0Z"/>
          <path class="st31" d="M166.5,258.6c0-.8-.4-.9-1.1-.5s-1.1,1.1-1.1,1.8v3.2l-1.8,1v-3.2c0-.8-.4-.9-1.1-.5s-1.1,1.1-1.1,1.8v3.2l-1.8,1v-5.8l1.8-1v.7c.3-.7.9-1.3,1.7-1.8.9-.5,1.6-.5,2,0,.4-.8,1.1-1.7,2-2.2,1.4-.8,2.4-.4,2.4,1.1v3.4l-1.8,1v-3.2h0Z"/>
          <path class="st31" d="M172.1,258.6c-1.7,1-2.9.5-2.9-1.3s1.2-3.7,2.9-4.7,2.9-.6,2.9,1.2,0,.4,0,.5l-4,2.3c0,.7.5.8,1.1.5.5-.3.8-.7.9-1.1l1.9-1.1c-.3,1.3-1.3,2.8-2.8,3.6h0ZM170.9,255.7l2.2-1.3c0-.6-.5-.7-1.1-.4s-1,.9-1.1,1.7h0Z"/>
          <path class="st31" d="M176.2,251.8l-.7.4v-1.5l.7-.4v-1.4l1.8-1v1.4l1.2-.7v1.5l-1.2.7v2.3c0,.3.1.4.5.2l.6-.4v1.5l-.9.5c-1.2.7-2.1.7-2.1-.8v-2.3h0Z"/>
          <path class="st31" d="M180.1,246.1l1.8-1v2.7c.4-.7,1-1.4,1.8-1.9,1.3-.8,2.2-.4,2.2,1.2v3.4l-1.8,1v-3.2c0-.8-.4-1-1.1-.6-.7.4-1.1,1.1-1.1,1.9v3.2l-1.8,1v-7.7h0Z"/>
          <path class="st31" d="M187,242.5c0-.5.4-1.2,1.1-1.6.6-.4,1.1-.2,1.1.4s-.4,1.2-1.1,1.6c-.6.4-1.1.2-1.1-.3h0ZM187.2,244l1.8-1v5.8l-1.8,1v-5.8Z"/>
          <path class="st31" d="M194.3,242.5c0-.8-.4-1-1.1-.6s-1.1,1.1-1.1,1.9v3.2l-1.8,1v-5.8l1.8-1v.8c.4-.7,1-1.4,1.8-1.9,1.4-.8,2.2-.4,2.2,1.2v3.4l-1.8,1v-3.2h0Z"/>
          <path class="st31" d="M199.5,236.8c.9-.5,1.5-.5,1.8-.1v-.8l1.8-1v5.8c0,1.6-.9,3.4-2.9,4.6-1.7,1-2.9.8-3-.5l1.8-1c.1.4.6.4,1.2,0,.7-.4,1.2-1.1,1.2-2v-.8c-.3.7-.9,1.5-1.8,1.9-1.4.8-2.6.3-2.6-1.5s1.1-3.6,2.6-4.5h-.1ZM200,238c-.7.4-1.3,1.2-1.3,2.2s.6,1.1,1.3.7c.7-.4,1.3-1.2,1.3-2.2s-.6-1.1-1.3-.7h0Z"/>
          <path class="st31" d="M206,233.1l1.8-1,.8,3.7,1-4.7,1.9-1.1,1,3.6.8-4.6,1.7-1-1.6,6.7-2,1.1-.9-3.2-.9,4.3-2,1.1-1.6-4.9h0Z"/>
          <path class="st31" d="M218.2,232c-1.7,1-2.9.6-2.9-1.3s1.2-3.7,2.9-4.7,2.9-.6,2.9,1.2,0,.4,0,.5l-4,2.3c0,.7.5.8,1.1.5.5-.3.8-.7.9-1.1l1.9-1.1c-.3,1.3-1.3,2.8-2.8,3.6h0ZM217,229.1l2.2-1.3c0-.6-.5-.7-1.1-.4s-1,.9-1.1,1.7h0Z"/>
          <path class="st31" d="M226,224.2c0-.8-.4-1-1.1-.6-.7.4-1.1,1.1-1.1,1.9v3.2l-1.8,1v-5.8l1.8-1v.8c.4-.7,1-1.4,1.8-1.9,1.4-.8,2.2-.4,2.2,1.2v3.4l-1.8,1v-3.2h0Z"/>
          <path class="st31" d="M229.3,221.1l-.7.4v-1.5l.7-.4v-1.4l1.8-1v1.4l1.2-.7v1.5l-1.2.7v2.3c0,.3.1.4.5.2l.6-.4v1.5l-.9.5c-1.2.7-2.1.7-2.1-.8v-2.3h0Z"/>
          <path class="st31" d="M234.9,216.4l1.8-1,.8,3.7,1-4.7,1.9-1.1,1,3.6.8-4.6,1.7-1-1.6,6.7-2,1.1-.9-3.2-1,4.3-2,1.1-1.6-4.9h.1Z"/>
          <path class="st31" d="M246.3,215.6l-1.8,1v-5.8l1.8-1v1c.4-.9,1-1.6,1.8-2.1v1.9l-.5.3c-.9.5-1.3,1.1-1.3,2.1v2.7h0Z"/>
          <path class="st31" d="M251.6,212.6c-1.7,1-3,.6-3-1.3s1.3-3.8,3-4.7c1.7-1,3-.6,3,1.2s-1.3,3.8-3,4.8h0ZM251.6,211.1c.6-.4,1.2-1.2,1.2-2.2s-.6-1.1-1.2-.8c-.6.4-1.2,1.2-1.2,2.1s.5,1.1,1.2.8h0Z"/>
          <path class="st31" d="M259.6,204.8c0-.8-.4-1-1.1-.6s-1.1,1.1-1.1,1.9v3.2l-1.8,1v-5.8l1.8-1v.8c.4-.7,1-1.4,1.8-1.9,1.4-.8,2.2-.4,2.2,1.2v3.4l-1.8,1v-3.2h0Z"/>
          <path class="st31" d="M264.9,199c.9-.5,1.5-.5,1.8-.1v-.8l1.8-1v5.8c0,1.6-.9,3.4-2.9,4.6-1.7,1-2.9.8-3-.5l1.8-1c.1.4.5.4,1.2,0s1.2-1.1,1.2-2v-.8c-.3.7-.9,1.5-1.8,1.9-1.4.8-2.6.3-2.6-1.5s1.1-3.6,2.6-4.5h-.1ZM265.4,200.3c-.7.4-1.3,1.2-1.3,2.2s.6,1.1,1.3.7c.7-.4,1.3-1.2,1.3-2.2s-.6-1.1-1.3-.7h0Z"/>
          <path class="st31" d="M270.6,201.7c-.6.4-1.1.2-1.1-.3s.4-1.2,1.1-1.6c.6-.4,1-.2,1,.4s-.4,1.2-1,1.6h0Z"/>
          <path class="st31" d="M273.5,200c-.6.4-1.1.2-1.1-.3s.4-1.2,1.1-1.6,1-.2,1,.4-.4,1.2-1,1.6h0Z"/>
          <path class="st31" d="M276.4,198.3c-.6.4-1.1.2-1.1-.3s.4-1.2,1.1-1.6,1-.2,1,.4-.4,1.2-1,1.6h0Z"/>
        </g>
        <g>
          <path class="st31" d="M105.3,189.9c-2.7,1.5-4.8.8-4.8-2s2.2-6.1,4.8-7.6c2.7-1.6,4.8-.8,4.8,2s-2.1,6.1-4.8,7.6ZM105.3,187.8c1.5-.9,2.5-2.5,2.5-4.2s-1-2.2-2.5-1.3-2.5,2.5-2.5,4.2,1,2.2,2.5,1.3h0Z"/>
          <path class="st31" d="M114.8,184.4c-2.2,1.3-3.9.8-3.9-1.6s1.7-4.8,3.9-6.1,3.9-.8,3.9,1.6-1.7,4.8-3.9,6.1h0ZM114.8,182.4c.8-.5,1.6-1.5,1.6-2.8s-.8-1.4-1.6-1c-.8.5-1.6,1.5-1.6,2.8s.7,1.5,1.5,1h.1Z"/>
          <path class="st31" d="M124.5,171.1c1.8-1.1,3.3-.4,3.3,1.9s-1.5,4.7-3.3,5.8c-1.1.6-1.9.6-2.3.2v4.6l-2.3,1.3v-11l2.3-1.3v1.1c.4-.9,1.2-1.9,2.3-2.5h0ZM123.8,173.5c-.9.5-1.6,1.6-1.6,2.8s.8,1.4,1.6.9c.9-.5,1.6-1.6,1.6-2.8s-.8-1.4-1.6-.9h0Z"/>
          <path class="st31" d="M132.1,174.4c-2,1.1-3.3.8-3.4-.6l2.3-1.3c0,.5.5.6,1.1.2.6-.3.9-.8.9-1.1,0-1.2-4.1,2-4.1-.7s1.1-2.9,3-4.1c1.9-1.1,3-.7,3.1.7l-2.1,1.2c0-.5-.5-.6-1.1-.2-.5.3-.8.7-.8,1.1,0,1.2,4.1-2,4.1.8s-1.1,2.9-3,4h0Z"/>
          <path class="st31" d="M138.3,170.8c-.8.5-1.4.2-1.4-.4s.6-1.6,1.4-2.1c.8-.5,1.4-.2,1.4.5s-.6,1.6-1.4,2h0ZM137,161.7l2.5-1.4-.3,6.6-1.9,1.1-.3-6.3h0Z"/>
        </g>
        <polygon class="st111" points="255.1 168.5 257.7 167 257.6 155.5 252.9 158.2 252.9 131.1 243.3 136.6 232.2 147.8 220.7 171.4 220.7 154.6 212.9 153.9 197 163.1 181.3 179.9 181.3 172.5 171.7 178 160.6 189.1 138.2 235.2 138.2 244.4 156.4 233.9 156.4 243.7 167.7 237.1 175.9 227.7 183.5 228.4 199.4 219.2 206.4 210.4 210.5 208.1 218.2 198.5 218.2 198.2 228 192.6 228 202.4 239.3 195.8 250.4 184.7 250.4 182 253 179.4 253 173.5 255.1 172.2 255.1 168.5"/>
        <g>
          <g class="st12">
            <polygon class="st59" points="262.4 163.5 252.9 158.1 257.6 155.3 267.1 160.8 262.4 163.5"/>
            <polygon class="st61" points="251.1 191.3 241.7 185.8 241.6 176.1 251.1 181.6 251.1 191.3"/>
            <polygon class="st79" points="247.1 172.4 237.7 166.9 241.6 164.6 251.1 170.1 247.1 172.4"/>
            <polygon class="st77" points="251.1 170.1 241.6 164.6 241.6 158.8 251 164.3 251.1 170.1"/>
            <polygon class="st78" points="233 192 223.5 186.5 223.5 177.3 232.9 182.8 233 192"/>
            <polygon class="st80" points="252.8 141.9 243.3 136.5 252.9 130.9 262.3 136.4 252.8 141.9"/>
            <polygon class="st110" points="232.9 182.8 223.5 177.3 243.3 136.5 252.8 141.9 232.9 182.8"/>
          </g>
          <g class="st12">
            <polygon class="st101" points="210.3 203.3 200.8 197.8 209.3 192.9 218.7 198.4 210.3 203.3"/>
            <polygon class="st102" points="208.7 198.4 200.8 197.8 209.3 192.9 218.7 198.4 208.7 198.4"/>
            <polygon class="st104" points="218.7 198.4 209.3 192.9 209.2 167.8 218.7 173.2 218.7 198.4"/>
            <polygon class="st10" points="222.4 159.2 212.9 153.7 220.7 154.4 230.1 159.9 222.4 159.2"/>
            <polygon class="st103" points="206.4 168.4 197 162.9 212.9 153.7 222.4 159.2 206.4 168.4"/>
            <polygon class="st110" points="198.7 178 189.3 172.5 197 162.9 206.4 168.4 198.7 178"/>
            <polygon class="st81" points="198.8 216.6 189.4 211.2 189.3 172.5 198.7 178 198.8 216.6"/>
          </g>
          <g class="st12">
            <polygon class="st86" points="190.8 204.9 181.3 199.4 186 196.7 195.5 202.2 190.8 204.9"/>
            <polygon class="st90" points="179.5 232.6 170.1 227.1 170 217.4 179.5 222.9 179.5 232.6"/>
            <polygon class="st89" points="175.5 213.7 166 208.2 170 205.9 179.5 211.4 175.5 213.7"/>
            <polygon class="st92" points="179.5 211.4 170 205.9 170 200.1 179.4 205.6 179.5 211.4"/>
            <polygon class="st91" points="161.3 233.4 151.9 227.9 151.9 218.7 161.3 224.2 161.3 233.4"/>
            <polygon class="st62" points="181.2 183.3 171.7 177.8 181.3 172.3 190.7 177.8 181.2 183.3"/>
            <polygon class="st110" points="161.3 224.2 151.9 218.7 171.7 177.8 181.2 183.3 161.3 224.2"/>
            <g>
              <path class="st31" d="M267.1,172.3v-11.5l-4.7,2.7v-27.1l-9.6,5.5-19.8,40.9v9.2l18.2-10.5v9.7l11.4-6.5v-9.7l4.7-2.7h-.2ZM247.1,172.4l3.9-8.1v5.8l-3.9,2.3h0Z"/>
              <path class="st31" d="M222.4,159.2l-15.9,9.2-7.7,9.6v38.7c.1,0,7.9.7,7.9.7l15.9-9.2,7.7-9.6v-38.7c-.1,0-7.9-.7-7.9-.7ZM210.3,203.3v-25.1l8.4-4.9v25.1l-8.4,4.9Z"/>
              <path class="st31" d="M195.5,202.2l-4.7,2.7v-27.1l-9.6,5.5-19.8,40.9v9.2l18.2-10.5v9.7l11.4-6.5v-9.7l4.7-2.7v-11.5h-.2ZM175.5,213.7l3.9-8.1v5.8l-3.9,2.3h0Z"/>
            </g>
          </g>
        </g>
        <polygon class="st63" points="165.3 336 134.6 337.3 119.5 328.7 147.2 326.9 147.5 325.3 117.4 327.1 93.6 340.9 112.5 351.8 135.1 355.1 136.5 353.8 127.7 352.4 137 346.5 139.9 338.6 165.6 337.5 165.3 336"/>
        <g>
          <g class="st12">
            <polygon class="st65" points="147.4 327 146.5 326.5 132.3 295.4 133.2 295.8 147.4 327"/>
            <polygon class="st64" points="135 294.8 149.2 325.9 147.4 327 133.2 295.8 133.2 294.4 136.4 292.5 136.4 294 135 294.8"/>
          </g>
          <g class="st12">
            <polygon class="st93" points="116.8 344.6 116 344.1 130 296.7 130.8 297.2 116.8 344.6"/>
            <polygon class="st98" points="129.4 298 129.4 296.5 132.7 294.7 132.7 296.1 118.7 343.5 116.8 344.6 130.8 297.2 129.4 298"/>
          </g>
          <g>
            <path class="st14" d="M141,310.4c-.9.6-6.6,6-16.5,9.5-.5.2-.5.9-.4,1.1.1.4,1,0,1.2-.1,5.9-2.4,11.2-5.6,16.3-9.6.2-.1.2-.3.2-.5-.1-.6-.1-.8-.8-.3h0Z"/>
            <path id="Axonometric_Ellipse" class="st72" d="M141.5,310.8c0,.1-.1.3-.2.4s-.2,0-.2-.1.1-.3.2-.4.2,0,.2.1Z"/>
            <path id="Axonometric_Ellipse-2" class="st71" d="M124.9,320.4c0,.1-.1.3-.2.4s-.2,0-.2-.1.1-.3.2-.4.2,0,.2.1Z"/>
          </g>
          <g>
            <g class="st12">
              <polygon class="st70" points="142.4 320.5 124.7 310.2 124.7 308.8 142.4 319.1 142.4 320.5"/>
              <polygon class="st69" points="142.4 319.1 124.7 308.8 130 305.7 147.8 316 142.4 319.1"/>
              <polygon class="st88" points="147.8 316 147.8 317.1 143.8 319.4 143.8 319.7 142.4 320.5 142.4 319.1 147.8 316"/>
              <polygon class="st87" points="142.4 319.1 142.4 320.5 143.8 319.7 143.8 318.3 142.4 319.1"/>
            </g>
            <g class="st12">
              <polygon class="st85" points="138.9 332.5 121.2 322.2 121.2 320.7 138.9 331 138.9 332.5"/>
              <polygon class="st84" points="138.9 331 121.2 320.7 126.5 317.6 144.3 327.9 138.9 331"/>
              <polygon class="st83" points="144.3 327.9 144.3 329 140.3 331.3 140.3 331.7 138.9 332.5 138.9 331 144.3 327.9"/>
              <polygon class="st82" points="138.9 331 138.9 332.5 140.3 331.7 140.3 330.2 138.9 331"/>
            </g>
            <g class="st12">
              <polygon class="st75" points="135.4 344.4 117.6 334.1 117.6 332.6 135.4 342.9 135.4 344.4"/>
              <polygon class="st76" points="135.4 342.9 117.6 332.6 123 329.5 140.7 339.8 135.4 342.9"/>
              <polygon class="st74" points="140.7 339.8 140.7 340.9 136.8 343.2 136.8 343.6 135.4 344.4 135.4 342.9 140.7 339.8"/>
              <polygon class="st73" points="135.4 342.9 135.4 344.4 136.8 343.6 136.8 342.1 135.4 342.9"/>
            </g>
          </g>
          <g class="st12">
            <polygon class="st100" points="165.7 337.5 164.8 337 150.6 305.9 151.5 306.4 165.7 337.5"/>
            <polygon class="st99" points="153.4 305.3 167.6 336.5 165.7 337.5 151.5 306.4 152.3 305.7 153.4 305.3"/>
          </g>
          <g class="st12">
            <polygon class="st97" points="135.1 355.2 134.3 354.7 148.3 307.3 149.1 307.8 135.1 355.2"/>
            <polygon class="st96" points="147.7 308.6 151.9 304.7 128.4 296 128.4 297.4 147.7 308.6"/>
            <polygon class="st95" points="154.7 303.1 135.5 291.9 131.7 294.1 128.4 296 147.7 307.1 154.7 303.1"/>
            <polygon class="st94" points="150.1 306.8 151 306.7 137 354.1 135.1 355.2 149.1 307.8 150.1 306.8"/>
            <polygon class="st67" points="154.7 304.5 154.7 303.1 147.7 307.1 147.7 308.6 154.7 304.5"/>
          </g>
          <g>
            <path class="st14" d="M159.4,321c-.9.6-6.6,6-16.5,9.5-.5.2-.5.9-.4,1.1.1.4,1,0,1.2-.1,5.9-2.4,11.2-5.6,16.3-9.6.2-.1.2-.3.2-.5-.1-.6-.1-.8-.8-.3h0Z"/>
            <path id="Axonometric_Ellipse-3" class="st68" d="M159.8,321.4c0,.1-.1.3-.2.4s-.2,0-.2-.1.1-.3.2-.4.2,0,.2.1Z"/>
            <path id="Axonometric_Ellipse-4" class="st66" d="M143.3,331c0,.1-.1.3-.2.4s-.2,0-.2-.1.1-.3.2-.4.2,0,.2.1Z"/>
          </g>
        </g>
      </g>
      <g>
        <path class="st105" d="M10.1,8.4h2.6v.9h-.9v6h.9v.8h-2.6v-.9h.9v-6h-.9v-.9h0Z"/>
        <path class="st105" d="M18.7,11.6v4.5h-.9v-4.5l-.6-.6h-.5l-.6.6v4.5h-.8v-6h.9v.2h.1c0-.2.2-.3.3-.3h.9c.1,0,.2,0,.3.1l.5.6.5-.5s.2-.1.3-.1h.9c.1,0,.2,0,.3.1l.8.8s.1.2.1.3v4.7h-.8v-4.6l-.6-.6h-.5l-.6.6h0v.2Z"/>
        <path class="st105" d="M28.3,15.3h.9v.8h-4.7c-.1,0-.2,0-.3-.1l-.8-.9s-.1-.2-.1-.3v-.9c0-.1,0-.2.1-.3l.8-.9s.2-.1.3-.1h3v-1.1l-.6-.6h-2.9v-.8h3c.1,0,.2,0,.3.1l.8.8s.1.2.1.3v3.9h.1ZM27.4,15.3v-1.8h-2.8l-.6.6v.6l.6.6h2.8Z"/>
        <path class="st105" d="M35.3,14.1l-1,1s-.2.1-.3.1h-1.3c0,0-.2,0-.3-.1l-1.6-1.6s-.1-.2-.1-.3v-.9c0-.1,0-.2.1-.3l1.7-1.7s.2-.1.3-.1h2.1c0,0,.2,0,.3.1l.8.9s0,.2,0,.3v5.2c0,.1,0,.2,0,.3l-.8.8s-.2.1-.3.1h-2.2c0,0-.2,0-.3-.1l-.8-.8.6-.6.7.7h1.9l.5-.5v-2.3h0v-.2ZM35.3,13v-1.4l-.6-.6h-1.8l-1.4,1.4v.6l1.4,1.4h1s1.4-1.4,1.4-1.4Z"/>
        <path class="st105" d="M39.2,13.5v1.1l.6.6h3.7v.8h-3.8c0,0-.2,0-.3-.1l-.9-.8s0-.2,0-.3v-3.4s0-.2,0-.3l.8-.9c0-.1.2-.1.3-.1h2.5s.2,0,.3.1l.8.9s0,.2,0,.3v2.1h-4.3.2ZM39.3,12.7h3.4v-1.1l-.6-.6h-2.2l-.6.6v1h0Z"/>
        <path class="st105" d="M53.4,16.1V7.6h.8v2.6h2.2c0,0,.2,0,.3.1l1.7,1.7s0,.2,0,.3v1.7c0,.1,0,.2,0,.3l-1.7,1.7s-.2.1-.3.1h-3ZM54.3,15.3h2l1.5-1.5v-1.4l-1.4-1.5h-2v4.3h0Z"/>
        <path class="st105" d="M63.3,15.7l-2.2-2.3s0-.2,0-.3v-3h.8v2.8l2.1,2.1,1.3-1.3v-3.7h.8v3.9c0,.1,0,.2,0,.3l-4.3,4.3-.6-.6,2.3-2.3h0Z"/>
        <path class="st105" d="M79.3,11.6v4.5h-.8v-4.5l-.6-.6h-.5l-.6.6v4.5h-.8v-6h.8v.2h0c0-.2.2-.3.3-.3h.9c0,0,.2,0,.3.1l.5.6.5-.5s.2-.1.3-.1h.9c0,0,.2,0,.3.1l.8.8s0,.2,0,.3v4.7h-.8v-4.6l-.6-.6h-.6l-.6.6h0v.2Z"/>
        <path class="st105" d="M88.9,15.3h.8v.8h-4.7c0,0-.2,0-.3-.1l-.8-.9s0-.2,0-.3v-.9c0-.1,0-.2,0-.3l.8-.9s.2-.1.3-.1h3v-1.1l-.6-.6h-2.9v-.8h3c0,0,.2,0,.3.1l.8.8s0,.2,0,.3v3.9h.2ZM88.1,15.3v-1.8h-2.8l-.6.6v.6l.6.6h2.8Z"/>
        <path class="st105" d="M96.4,10.2v.8h-2.8l-1.4,1.5v1.4l1.5,1.5h2.8v.8h-3c0,0-.2,0-.3-.1l-1.7-1.7s0-.2,0-.3v-1.7c0-.1,0-.2,0-.3l1.7-1.7s.2-.1.3-.1h3,0Z"/>
        <path class="st105" d="M100.3,12.4v3.7h-.8v-4.7c0-.1,0-.2,0-.3,0,0-.2-.1-.3-.1h-.2v-.8h.7c0,0,.3,0,.5.3s.3.4.3.6v.2l1-1s.2-.1.3-.1h1c0,0,.2,0,.3.1l.9.9s0,.2,0,.3v.4h-.8v-.2l-.6-.6h-.7l-1.4,1.4h-.2Z"/>
        <path class="st105" d="M106.4,11.1l.8-.9s.2-.1.3-.1h2.6c0,0,.2,0,.3.1l.8.9s0,.2,0,.3v3.4c0,.1,0,.2,0,.3l-.8.8h-2.9s-.2,0-.3-.1l-.9-.8s0-.2,0-.3v-3.5s0-.2,0-.3h0v.2ZM107.1,11.6v3.1l.6.6h2.3l.6-.6v-3.1l-.6-.6h-2.3l-.6.6Z"/>
        <path class="st105" d="M114.6,11.3l2.1,3.6,2.1-3.6v-1.1h.8v1.4l-2.6,4.3c0,.1-.2.2-.4.2s-.3,0-.4-.2l-2.5-4.3v-1.5h.8v1.2h0Z"/>
        <path class="st105" d="M122.5,13.5v1.1l.6.6h3.7v.8h-3.8c0,0-.2,0-.3-.1l-.9-.8s0-.2,0-.3v-3.4s0-.2,0-.3l.8-.9c0-.1.2-.1.3-.1h2.5s.2,0,.3.1l.8.9s0,.2,0,.3v2.1h-4.3.2ZM122.5,12.7h3.4v-1.1l-.6-.6h-2.2l-.6.6v1h0Z"/>
        <path class="st105" d="M134.3,10.2v.8h-2.8l-1.4,1.5v1.4l1.5,1.5h2.8v.8h-3c-.1,0-.2,0-.3-.1l-1.7-1.7s-.1-.2-.1-.3v-1.7c0-.1,0-.2.1-.3l1.7-1.7s.2-.1.3-.1h3-.1Z"/>
        <path class="st105" d="M139.6,15.1l.2.2h.7v.8h-.9c-.1,0-.2,0-.3-.1l-.4-.4s-.1-.2-.1-.3v-4.3h-1.7v-.9h1.7v-2.6h.8v2.6h1.7v.9h-1.7v4.1h0Z"/>
        <path class="st105" d="M143.8,11.1l.9-.9s.2-.1.3-.1h2.6c.1,0,.2,0,.3.1l.8.9s.1.2.1.3v3.4c0,.1,0,.2-.1.3l-.8.8h-2.9c-.1,0-.2,0-.3-.1l-.9-.8s-.1-.2-.1-.3v-3.5s0-.2.1-.3h0v.2ZM144.5,11.6v3.1l.6.6h2.3l.6-.6v-3.1l-.6-.6h-2.3l-.6.6Z"/>
        <path class="st105" d="M152.7,12.4v3.7h-.8v-4.7c0-.1,0-.2-.1-.3,0,0-.2-.1-.3-.1h-.2v-.8h.7c.1,0,.3,0,.5.3s.3.4.3.6v.2l1-1s.2-.1.3-.1h1c.1,0,.2,0,.3.1l.9.9s.1.2.1.3v.4h-.8v-.2l-.6-.6h-.7l-1.4,1.4h-.2Z"/>
        <path class="st105" d="M166.3,11.1l.9-.9s.2-.1.3-.1h2.6c.1,0,.2,0,.3.1l.8.9s.1.2.1.3v3.4c0,.1,0,.2-.1.3l-.8.8h-2.9c-.1,0-.2,0-.3-.1l-.9-.8s-.1-.2-.1-.3v-3.5s0-.2.1-.3h0v.2ZM167,11.6v3.1l.6.6h2.3l.6-.6v-3.1l-.6-.6h-2.3l-.6.6Z"/>
        <path class="st105" d="M175.1,10.6l.3-.3s.2-.1.3-.1h1.7c.1,0,.2,0,.3.1l.8.8s.1.2.1.3v4.7h-.8v-4.6l-.6-.6h-1.4l-.6.6v4.5h-.8v-4.9l-.2-.3h-.7v-.8h.9c.1,0,.2,0,.3.1l.4.4h0Z"/>
        <path class="st105" d="M188.6,8.4h5.9v.9h-5.1v2.6h4.2v.9h-4.2v3.4h-.9v-7.7h.1Z"/>
        <path class="st105" d="M197.1,12.4v3.7h-.8v-4.7c0-.1,0-.2-.1-.3,0,0-.2-.1-.3-.1h-.2v-.8h.7c.1,0,.3,0,.5.3s.3.4.3.6v.2l1-1s.2-.1.3-.1h1c.1,0,.2,0,.3.1l.9.9s.1.2.1.3v.4h-.8v-.2l-.6-.6h-.7l-1.4,1.4h-.2Z"/>
        <path class="st105" d="M203.9,13.5v1.1l.6.6h3.7v.8h-3.9c-.1,0-.2,0-.3-.1l-.9-.8s-.1-.2-.1-.3v-3.4s0-.2.1-.3l.9-.9c.1-.1.2-.1.3-.1h2.5s.2,0,.3.1l.8.9s.1.2.1.3v2.1h-4.3.2ZM203.9,12.7h3.4v-1.1l-.6-.6h-2.2l-.6.6v1h0Z"/>
        <path class="st105" d="M211.4,13.5v1.1l.6.6h3.7v.8h-3.9c-.1,0-.2,0-.3-.1l-.9-.8s-.1-.2-.1-.3v-3.4s0-.2.1-.3l.9-.9c.1-.1.2-.1.3-.1h2.5s.2,0,.3.1l.8.9s.1.2.1.3v2.1h-4.3.2ZM211.4,12.7h3.4v-1.1l-.6-.6h-2.2l-.6.6v1h0Z"/>
        <path class="st105" d="M218.1,10.3h3.3l1.7,1.6s.1.2.1.3v1.7c0,.1,0,.2-.1.3l-1.7,1.7s-.2,0-.3,0h-2.2v2.6h-.8v-8.4h0ZM218.9,11v4.3h2l1.4-1.5v-1.4l-1.5-1.4h-2,.1Z"/>
        <path class="st105" d="M226.9,7.6h.9v.9h-.9v-.9ZM226.9,10.1h.9v6h-.9v-6Z"/>
        <path class="st105" d="M233.8,13.1l2.3,2.4-.6.6-2.5-2.6h-1.1v2.6h-.9V7.6h.9v5.1h1.1l2.5-2.6.6.6-2.4,2.4h0Z"/>
      </g>
    </g>
  </g>
</svg>