<svg width="1150" height="1155" xmlns="http://www.w3.org/2000/svg" xmlns:xlink="http://www.w3.org/1999/xlink" overflow="hidden"><defs><clipPath id="clip0"><rect x="3080" y="1232" width="1150" height="1155"/></clipPath></defs><g clip-path="url(#clip0)" transform="translate(-3080 -1232)"><path d="M819.547 15.221 116.415 313.588C19.3298 354.786-25.9763 466.886 15.221 563.971L313.744 1267.47C354.941 1364.55 467.041 1409.86 564.127 1368.66L1267.26 1070.3C1364.34 1029.1 1409.65 916.999 1368.45 819.913L1069.93 116.415C1028.73 19.3298 916.632-25.9763 819.547 15.221ZM543.396 330.592C565.098 321.353 591.159 325.337 609.19 342.756L1124.94 841.042C1148.99 864.268 1149.65 902.585 1126.42 926.626L1126.42 926.625C1103.19 950.666 1064.88 951.326 1040.84 928.1L927.493 818.597 618.968 949.517 618.968 1107.12C618.968 1140.55 591.869 1167.65 558.442 1167.65L558.442 1167.64C525.014 1167.65 497.916 1140.55 497.916 1107.12L497.916 389.978C497.916 364.907 513.159 343.397 534.882 334.208L539.503 333.275 543.396 330.592Z" fill="#000000" fill-rule="evenodd" fill-opacity="1" transform="matrix(-0.920549 0.390627 0.390627 0.920549 4020 903.351)"/><path d="M0.000360892 0 0 297.206 213.746 206.505 0.000360892 0Z" fill="#000000" fill-rule="evenodd" fill-opacity="1" transform="matrix(-0.920549 0.390627 0.390627 0.920549 3653.54 1624.3)"/></g></svg>