<svg xmlns="http://www.w3.org/2000/svg" xmlns:xlink="http://www.w3.org/1999/xlink" width="1150" height="1151" overflow="hidden"><defs><clipPath id="clip0"><rect width="1150" height="1151" x="2933" y="1104"/></clipPath></defs><g clip-path="url(#clip0)" transform="translate(-2933 -1104)"><path fill="#000" fill-opacity="1" fill-rule="evenodd" d="M3697.21 1703.11 3782.14 1903.53 3612.29 1903.53ZM3693.83 1553.41C3676.58 1553.39 3660.16 1563.53 3653 1580.44L3448.07 2064.04C3438.52 2086.58 3449.03 2112.61 3471.54 2122.18 3494.05 2131.74 3520.04 2121.22 3529.59 2098.68L3574.63 1992.4 3819.8 1992.4 3864.84 2098.68C3874.39 2121.22 3900.38 2131.74 3922.89 2122.18 3945.4 2112.61 3955.91 2086.58 3946.35 2064.04L3741.43 1580.44C3734.26 1563.53 3717.85 1553.39 3700.6 1553.41L3697.22 1554.1ZM3111.25 1264.28C3088.03 1264.28 3069.2 1283.3 3069.2 1306.76 3069.2 1330.22 3088.03 1349.24 3111.25 1349.24L3316.41 1349.24 3320.72 1384.14C3324.9 1504.8 3264.12 1619.16 3161.78 1682.19L3122.65 1702.16 3111.05 1707.83C3090.16 1718.06 3081.42 1743.47 3091.54 1764.58 3101.66 1785.69 3126.81 1794.52 3147.71 1784.29L3205.18 1754.01C3333.18 1675.19 3404.73 1536.66 3403.97 1381.25 3403.92 1339.9 3405.36 1370.64 3400.85 1320.28 3393.42 1281.8 3376.08 1264.28 3352.86 1264.28ZM3515.32 1236.43C3492.1 1236.43 3473.27 1255.45 3473.27 1278.91L3473.27 1504.74C3473.27 1504.74 3473.27 1504.74 3473.27 1504.74L3473.27 1504.74 3473.27 1504.74C3473.27 1592.44 3473.27 1680.14 3473.27 1767.84 3473.27 1773.71 3474.45 1779.29 3476.58 1784.38L3483.02 1794.04 3557.36 1618.65 3557.36 1547.22 3600.69 1547.22C3623.91 1547.22 3642.73 1528.2 3642.73 1504.74 3642.73 1481.28 3623.91 1462.26 3600.69 1462.26L3557.36 1462.26 3557.36 1278.91C3557.36 1255.45 3538.54 1236.43 3515.32 1236.43ZM3127.84 1105 3891.16 1105C3996.56 1105 4082 1190.56 4082 1296.1L4082 2060.9C4082 2166.44 3996.56 2252 3891.16 2252L3127.84 2252C3022.44 2252 2937 2166.44 2937 2060.9L2937 1296.1C2937 1190.56 3022.44 1105 3127.84 1105Z"/></g></svg>