<svg width="1160" height="1155" xmlns="http://www.w3.org/2000/svg" xmlns:xlink="http://www.w3.org/1999/xlink" overflow="hidden"><defs><clipPath id="clip0"><rect x="948" y="1205" width="1160" height="1155"/></clipPath></defs><g clip-path="url(#clip0)" transform="translate(-948 -1205)"><path d="M954.996 0 191.004 0C85.5152 0 0 85.5602 0 191.104L0 955.896C0 1061.44 85.5152 1147 191.004 1147L954.996 1147C1060.48 1147 1146 1061.44 1146 955.896L1146 191.104C1146 85.5602 1060.48 0 954.996 0ZM342.593 190.482C373.617 190.482 398.766 215.867 398.766 247.182L398.766 548.618C398.766 548.619 398.767 548.621 398.767 548.622L398.766 548.621 398.766 548.623C398.766 665.688 398.766 782.753 398.766 899.818 398.766 931.133 373.616 956.518 342.593 956.518L342.593 956.517C311.57 956.517 286.421 931.132 286.421 899.818L286.421 605.322 228.54 605.322C197.516 605.322 172.367 579.936 172.367 548.621 172.367 517.307 197.516 491.922 228.54 491.922L286.421 491.922 286.421 247.182C286.421 215.867 311.57 190.482 342.593 190.482ZM882.425 227.658C913.448 227.658 938.597 253.044 938.597 284.358 938.597 315.673 913.448 341.058 882.425 341.058L608.331 341.057 602.567 387.651C596.984 548.705 678.184 701.359 814.916 785.489L867.194 812.147 882.683 819.719C910.603 833.37 922.274 867.282 908.751 895.465 895.228 923.648 861.63 935.429 833.71 921.778L756.937 881.359C585.929 776.139 490.332 591.229 491.355 383.787 491.418 328.593 489.495 369.622 495.516 302.4 505.446 251.039 528.609 227.658 559.633 227.658L882.425 227.658Z" stroke="#FFFFFF" stroke-width="4.58333" stroke-linecap="butt" stroke-linejoin="miter" stroke-miterlimit="8" stroke-opacity="1" fill="#000000" fill-rule="evenodd" fill-opacity="1" transform="matrix(-1 0 0 1 2101.5 1209.5)"/></g></svg>